<?xml version="1.0" encoding="utf-8"?>
<!-- Generator: Adobe Illustrator 15.1.0, SVG Export Plug-In . SVG Version: 6.00 Build 0)  -->
<!DOCTYPE svg PUBLIC "-//W3C//DTD SVG 1.1//EN" "http://www.w3.org/Graphics/SVG/1.1/DTD/svg11.dtd">
<svg version="1.1" id="Layer_1" xmlns="http://www.w3.org/2000/svg" xmlns:xlink="http://www.w3.org/1999/xlink" x="0px" y="0px"
	 width="512px" height="512px" viewBox="0 0 512 512" enable-background="new 0 0 512 512" xml:space="preserve">
<g>
	<g>
		<path fill="#B18CC4" d="M512,462c0,27.614-22.386,50-50,50H50c-27.614,0-50-22.386-50-50V50C0,22.386,22.386,0,50,0h412
			c27.614,0,50,22.386,50,50V462z"/>
		<path fill="#F2D4FF" d="M506,456c0,27.614-22.386,50-50,50H56c-27.614,0-50-22.386-50-50V56C6,28.386,28.386,6,56,6h400
			c27.614,0,50,22.386,50,50V456z"/>
		<g>
			<path fill="#B18CC4" d="M500,450c0,27.614-22.386,50-50,50H62c-27.614,0-50-22.386-50-50V62c0-27.614,22.386-50,50-50h388
				c27.614,0,50,22.386,50,50V450z"/>
			<g>
				<ellipse fill="#F2D4FF" cx="131.454" cy="145.314" rx="57.896" ry="66.801"/>
				<ellipse fill="#F2D4FF" cx="378.477" cy="150.486" rx="57.896" ry="66.8"/>
				<path fill="#F2D4FF" d="M379,436.536C379,452.794,368.108,466,355.318,466H154.612C141.822,466,132,452.794,132,436.536V144.133
					c0-16.256,9.822-29.133,22.612-29.133h200.707c12.79,0,23.682,12.877,23.682,29.133V436.536z"/>
				<path fill="#F2D4FF" d="M211,137.201c0,11.384-9.632,20.799-22.422,20.799h-33.966c-12.79,0-22.612-9.415-22.612-20.799v-53.59
					C132,72.229,141.822,63,154.612,63h33.966C201.368,63,211,72.229,211,83.611V137.201z"/>
				<path fill="#F2D4FF" d="M380,137.201C380,148.585,369.652,158,356.862,158h-33.966C310.107,158,299,148.585,299,137.201v-53.59
					C299,72.229,310.107,63,322.896,63h33.966C369.652,63,380,72.229,380,83.611V137.201z"/>
				<path fill="#F2D4FF" d="M173.661,132.509c12.789,8.218,15.823,26.294,7.398,39.406l-56.952,88.644
					c-8.425,13.111-25.094,16.258-37.885,8.041l-50.948-32.731c-12.789-8.218-16.856-24.688-8.431-37.799l56.951-88.643
					c8.426-13.114,26.128-17.867,38.918-9.65L173.661,132.509z"/>
				<polygon fill="#F2D4FF" points="318.926,193.813 175.893,194.316 104.173,136.795 175.486,78.771 318.518,78.268 
					390.236,135.788 				"/>
				<path fill="#F2D4FF" d="M337.957,132.509c-12.789,8.218-15.823,26.294-7.398,39.406l56.951,88.644
					c8.426,13.111,25.097,16.258,37.887,8.041l50.946-32.731c12.789-8.218,16.856-24.688,8.432-37.799l-56.95-88.643
					c-8.426-13.114-26.129-17.867-38.918-9.65L337.957,132.509z"/>
			</g>
		</g>
	</g>
</g>
</svg>
