<?xml version="1.0" encoding="utf-8"?>
<!-- Generator: Adobe Illustrator 15.1.0, SVG Export Plug-In . SVG Version: 6.00 Build 0)  -->
<!DOCTYPE svg PUBLIC "-//W3C//DTD SVG 1.1//EN" "http://www.w3.org/Graphics/SVG/1.1/DTD/svg11.dtd">
<svg version="1.1" id="Layer_1" xmlns="http://www.w3.org/2000/svg" xmlns:xlink="http://www.w3.org/1999/xlink" x="0px" y="0px"
	 width="512px" height="512px" viewBox="-7.5 -50 512 512" enable-background="new -7.5 -50 512 512" xml:space="preserve">
<g>
	<path fill="#B18CC4" d="M504.5,412c0,27.614-22.386,50-50,50h-412c-27.614,0-50-22.386-50-50V0c0-27.614,22.386-50,50-50h412
		c27.614,0,50,22.386,50,50V412z"/>
	<path fill="#F2D4FF" d="M498.5,406c0,27.614-22.386,50-50,50h-400c-27.614,0-50-22.386-50-50V6c0-27.614,22.386-50,50-50h400
		c27.614,0,50,22.386,50,50V406z"/>
	<path fill="#B18CC4" d="M492.5,400c0,27.614-22.386,50-50,50h-388c-27.614,0-50-22.386-50-50V12c0-27.614,22.386-50,50-50h388
		c27.614,0,50,22.386,50,50V400z"/>
	<g>
		<g>
			<path fill="#F2D4FF" d="M439.5,180c0,8.284-6.716,15-15,15h-353c-8.284,0-15-6.716-15-15v-1c0-8.284,6.716-15,15-15h353
				c8.284,0,15,6.716,15,15V180z"/>
			<path fill="#B18CC4" d="M439.5,184.5c0-5.799-4.701-10.5-10.5-10.5H67c-5.799,0-10.5,4.701-10.5,10.5l0,0
				c0,5.799,4.701,10.5,10.5,10.5h362C434.799,195,439.5,190.299,439.5,184.5L439.5,184.5z"/>
		</g>
		<g>
			<path fill="#F2D4FF" d="M458.5,240c0,8.284-6.716,15-15,15h-388c-8.284,0-15-6.716-15-15v-48c0-8.284,6.716-15,15-15h388
				c8.284,0,15,6.716,15,15V240z"/>
			<path fill="#F2D4FF" d="M164.5,176c0-8.284,6.716-15,15-15h122c8.284,0,15,6.716,15,15v80c0,8.284-6.716,15-15,15h-122
				c-8.284,0-15-6.716-15-15V176z"/>
			<path fill="#B18CC4" d="M290.5,229.973c0,11.062-6.716,20.027-15,20.027h-69c-8.284,0-15-8.967-15-20.027v-29.374
				c0-11.061,6.716-19.599,15-19.599h69c8.284,0,15,8.538,15,19.599V229.973z"/>
			<path fill="#F2D4FF" d="M310.5,218.441c0,4.973-2.584,8.559-6.325,8.559h-56.901c-3.742,0-6.774-3.586-6.774-8.559v-1.2
				c0-4.972,3.032-8.241,6.774-8.241h56.901c3.741,0,6.325,3.27,6.325,8.241V218.441z"/>
		</g>
	</g>
</g>
</svg>
