<?xml version="1.0" encoding="utf-8"?>
<!-- Generator: Adobe Illustrator 15.1.0, SVG Export Plug-In . SVG Version: 6.00 Build 0)  -->
<!DOCTYPE svg PUBLIC "-//W3C//DTD SVG 1.1//EN" "http://www.w3.org/Graphics/SVG/1.1/DTD/svg11.dtd">
<svg version="1.1" id="Layer_1" xmlns="http://www.w3.org/2000/svg" xmlns:xlink="http://www.w3.org/1999/xlink" x="0px" y="0px"
	 width="512px" height="512px" viewBox="-56.5 -37.176 512 512" enable-background="new -56.5 -37.176 512 512"
	 xml:space="preserve">
<g>
	<g>
		<path fill="#B18CC4" d="M455.5,424.824c0,27.614-22.386,50-50,50h-412c-27.614,0-50-22.386-50-50v-412c0-27.614,22.386-50,50-50
			h412c27.614,0,50,22.386,50,50V424.824z"/>
		<path fill="#F2D4FF" d="M449.5,418.824c0,27.614-22.386,50-50,50h-400c-27.614,0-50-22.386-50-50v-400c0-27.614,22.386-50,50-50
			h400c27.614,0,50,22.386,50,50V418.824z"/>
		<path fill="#B18CC4" d="M443.5,412.824c0,27.614-22.386,50-50,50H5.5c-27.614,0-50-22.386-50-50v-388c0-27.614,22.386-50,50-50
			h388c27.614,0,50,22.386,50,50V412.824z"/>
	</g>
	<g>
		<g>
			<g>
				<g>
					<g>
						<path fill="#F2D4FF" d="M345.14,416.781c-6.185-9.357-8.447-21.151-18.497-26.335c-9.995-5.153-26.995-3.327-37.68-7.131
							c-3.649-1.302-7.617-4.334-11.646-6.585c-11.933-6.66-22.568-13.554-31.513-22.492
							c-12.377-12.367-20.193-25.957-29.459-40.049c-2.641-4.016-6.814-7.535-8.906-11.521c-9.595-18.294-9.059-45.8-11.646-69.675
							c-7.52-69.365-8.408-154.28-6.167-229.871c-43.536-5.411-93.666-0.078-136.33,2.194
							c3.243,71.136,13.688,141.598,28.088,205.732c2.016,8.98,5.025,18.605,6.165,27.43c1.561,12.07,0,26.828,0,40.6
							c0,13.436-0.287,27.588-2.74,38.951c-1.69,7.834-6.381,14.682-7.536,21.945c-0.658,4.141,1.081,8.158,0.686,12.067
							c-0.32,3.158-2.522,6.103-2.741,9.326c-0.542,7.99,2.547,12.808,3.425,21.946c0.831,8.632-1.312,20.972,2.742,25.234
							c2.979,3.136,12.614,3.39,21.923,4.938c10.5,1.75,15.386,4.924,26.032,4.391c9.095-0.457,15.729-3.936,22.608-6.036
							c13.744,14.821,29.445,24.524,60.972,25.237C255.923,438.053,313.75,428.617,345.14,416.781z"/>
					</g>
				</g>
			</g>
		</g>
		<g>
			<g>
				<path fill="#B18CC4" d="M64.639,16.225c61.353,6.188,123.339-1.193,183.321-14.373c1.312-0.288,3.826-0.718,4.534-2.088
					c0.634-1.226-2.735-0.789-3.083-0.712c-58.875,12.936-119.529,20.132-179.75,14.059C68.037,12.947,60.79,15.837,64.639,16.225
					L64.639,16.225z"/>
			</g>
		</g>
	</g>
	
		<ellipse transform="matrix(0.0114 0.9999 -0.9999 0.0114 140.4014 -114.9435)" fill="#B18CC4" stroke="#B18CC4" stroke-miterlimit="10" cx="128.332" cy="13.535" rx="4.707" ry="70.945"/>
</g>
</svg>
