<?xml version="1.0" encoding="utf-8"?>
<!-- Generator: Adobe Illustrator 15.1.0, SVG Export Plug-In . SVG Version: 6.00 Build 0)  -->
<!DOCTYPE svg PUBLIC "-//W3C//DTD SVG 1.1//EN" "http://www.w3.org/Graphics/SVG/1.1/DTD/svg11.dtd">
<svg version="1.1" id="Layer_1" xmlns="http://www.w3.org/2000/svg" xmlns:xlink="http://www.w3.org/1999/xlink" x="0px" y="0px"
	 width="512px" height="512px" viewBox="0.5 0.5 512 512" enable-background="new 0.5 0.5 512 512" xml:space="preserve">
<g>
	<path fill="#B18CC4" d="M512.5,462.5c0,27.614-22.386,50-50,50h-412c-27.614,0-50-22.386-50-50v-412c0-27.614,22.386-50,50-50h412
		c27.614,0,50,22.386,50,50V462.5z"/>
	<path fill="#F2D4FF" d="M506.5,456.5c0,27.614-22.386,50-50,50h-400c-27.614,0-50-22.386-50-50v-400c0-27.614,22.386-50,50-50h400
		c27.614,0,50,22.386,50,50V456.5z"/>
	<path fill="#B18CC4" d="M500.5,450.5c0,27.614-22.386,50-50,50h-388c-27.614,0-50-22.386-50-50v-388c0-27.614,22.386-50,50-50h388
		c27.614,0,50,22.386,50,50V450.5z"/>
</g>
<g>
	<path fill="#F2D4FF" d="M335.66,289.473c-8.135-25.229-16.688-51.82-23.832-78.928c-8.88-17.749-18.273-35.191-27.967-52.617
		c-6.442-11.582-13.363-24.438-14.719-37.825c-0.875-8.646-0.17-17.329-0.381-25.931c-31.205,28.292-75.552,27.528-108.433,16.57
		c5.515,32.773,16.295,52.059,28.143,79.941c47.972,100.553-14.174,211.69-51.244,292.838c17.445-1.765,33.798-10.584,51.244-15.877
		c17.444-3.527,32.708,3.528,50.153,0c16.354-3.527,31.618-19.404,47.973-12.349c38.159,12.349,70.867,59.979,110.118,8.82
		C381.452,405.902,353.105,349.451,335.66,289.473z"/>
	<g>
		<path fill="#F2D4FF" d="M342.422,287.661c-5.246-16.271-10.466-32.548-15.366-48.926c-2.605-8.707-5.092-17.449-7.46-26.223
			c-2.249-8.329-7.214-16.086-11.209-23.715c-7.861-15.012-16.492-29.635-24.174-44.734c-3.852-7.568-6.803-15.622-8.1-24.029
			c-1.336-8.659-0.354-17.673-0.508-26.399c-0.097-5.462-8.188-5.258-11.311-2.479c-27.529,24.507-66.284,26.156-100.047,15.086
			c-3.94-1.292-11.592,1.03-10.68,6.311c4.61,26.703,15.409,50.634,26.142,75.286c5.682,13.05,11.028,25.882,14.401,39.761
			c3.244,13.348,4.758,27.071,4.966,40.791c0.83,54.823-19.537,107.713-41.648,156.946c-8.649,19.26-17.871,38.254-26.655,57.451
			c-1.746,3.816,2.602,5.975,5.833,5.604c14.98-1.718,28.776-7.438,42.778-12.693c6.934-2.604,13.288-4.396,20.758-4.157
			c7.388,0.235,14.709,1.514,22.092,1.896c14.33,0.74,25.99-3.573,38.604-9.789c4.916-2.423,9.9-4.849,15.438-5.246
			c5.086-0.365,11.213,3.035,15.738,5.094c18.991,8.636,35.357,23.643,56.279,27.759c10.321,2.03,20.719,0.552,30.144-4.1
			c5.302-2.616,10.083-6.313,14.337-10.386c2.539-2.431,4.898-4.989,7.165-7.677c3.275-3.886,3.922-5.391,2.605-10.28
			C386.808,400.326,359.434,345.756,342.422,287.661c-1.8-6.147-15.31-2.478-13.522,3.623
			c17.352,59.255,45.253,114.9,61.057,174.645c0.373-1.25,0.745-2.499,1.118-3.749c-6.802,8.705-14.822,17.234-25.959,19.813
			c-7.996,1.852-16.633-1.406-23.812-4.615c-18.45-8.245-34.089-21.39-53.581-27.571c-11.203-3.554-22.843,1.169-32.83,6.029
			c-5.263,2.563-10.423,5.354-16.088,6.927c-6.525,1.813-13.731,0.982-20.358,0.311c-6.266-0.636-12.461-1.258-18.767-1.314
			c-7.415-0.066-14.151,1.767-21.069,4.229c-13.368,4.759-26.523,11.034-40.761,12.666c1.944,1.868,3.888,3.735,5.833,5.604
			c21.886-47.835,45.813-94.898,59.417-145.975c6.997-26.271,10.818-53.489,9.326-80.697c-0.743-13.55-2.876-26.944-6.451-40.036
			c-3.727-13.649-9.676-26.423-15.371-39.325c-9.97-22.59-19.287-44.806-23.514-69.292c-3.56,2.104-7.12,4.208-10.68,6.311
			c38.94,12.768,85.092,10.187,116.816-18.054c-3.771-0.826-7.541-1.652-11.311-2.479c0.146,8.462-0.254,16.897,0.3,25.352
			c0.548,8.368,3.313,16.31,6.704,23.91c7.006,15.699,16.322,30.473,24.385,45.645c2.104,3.956,4.176,7.928,6.234,11.906
			c2.104,4.067,4.85,8.28,6.025,12.725c2.328,8.791,4.834,17.534,7.412,26.253c5.032,17.012,10.477,33.9,15.92,50.784
			C330.871,297.4,344.361,293.677,342.422,287.661z"/>
	</g>
</g>
<g>
	<g>
		<path fill="#F2D4FF" d="M201.467,121.262c-18.179-7.796-35.224-17.822-55.475-18.777c-2.99-0.141-13.771,4.22-7.792,7.922
			c19.627,12.155,36.111,27.834,50.397,45.898c3.321,4.2,16.303-0.767,12.473-5.609c-14.76-18.664-31.998-34.88-52.27-47.434
			c-2.598,2.641-5.195,5.281-7.792,7.922c18.143,0.856,33.571,10.238,49.858,17.223c3.141,1.347,6.792,0.867,9.633-1.051
			C202.292,126.146,204.6,122.605,201.467,121.262L201.467,121.262z"/>
	</g>
</g>
<g>
	<g>
		<path fill="#B18CC4" d="M274.529,484.644c16.285-53.081,27.074-108.521,27.385-164.191c0.104-18.56-0.941-37.255-4.544-55.493
			c-2.229-11.291-5.452-23.372-12.438-32.75c-0.648-0.872-1.367-1.69-2.121-2.473c-3.293-3.413-16.131,1.588-12.56,5.292
			c7.354,7.627,10.335,19.185,12.659,29.193c4.074,17.533,5.261,35.74,5.466,53.691c0.627,54.977-10.015,110.214-25.634,162.718
			c-0.567,1.907-1.151,3.81-1.734,5.71C259.546,491.109,273.13,489.208,274.529,484.644L274.529,484.644z"/>
	</g>
</g>
<g>
	<g>
		<path fill="#B18CC4" d="M176.944,497.62c20.277-28.003,37.651-58.608,48.638-91.494c3.674-10.999,6.575-22.392,7.674-33.958
			c0.64-6.73,1.01-14.645-1.991-20.917c-2.241-4.683-15.441-0.386-13.523,3.623c2.773,5.795,2.525,12.757,1.993,18.989
			c-0.951,11.143-3.861,22.117-7.271,32.729c-10.506,32.69-28.054,63.044-48.11,90.743c-1.913,2.642,1.611,3.929,3.665,3.977
			C171.11,501.384,175.047,500.24,176.944,497.62L176.944,497.62z"/>
	</g>
</g>
<g>
	<g>
		<path fill="#F2D4FF" d="M192.178,450.341c16.056-23.218,24.405-51.288,30.797-78.487c6.352-27.021,10.274-54.59,13.287-82.164
			c0.213-1.957-13.064-0.58-13.523,3.623c-3.021,27.657-7.095,55.233-13.465,82.334c-6.274,26.691-14.706,54.244-30.451,77.014
			c-1.46,2.111,5.02,1.531,5.452,1.456C186.956,453.649,190.533,452.719,192.178,450.341L192.178,450.341z"/>
	</g>
</g>
<g>
	<g>
		<path fill="#F2D4FF" d="M226.342,438.954c14.07-51.694,18.941-105.556,19-159c0.008-6.985-13.677-4.833-13.684,1.092
			c-0.059,53.444-4.93,107.308-19,159C210.935,446.38,224.768,444.736,226.342,438.954L226.342,438.954z"/>
	</g>
</g>
<g>
	<g>
		<path fill="#F2D4FF" d="M287.218,342.491c5.694-65.589-17.089-127.529-33.956-189.803c-1.073-3.962-14.593-0.326-13.523,3.623
			c16.68,61.583,39.677,123.32,34.044,188.197C273.382,349.126,286.885,346.329,287.218,342.491L287.218,342.491z"/>
	</g>
</g>
<g>
	<g>
		<path fill="#F2D4FF" d="M315.262,330.688c-2.304-47.521-16.488-98.243-46.5-135.9c-3.08-3.865-16.088,0.951-12.523,5.425
			c29.564,37.096,43.232,87.317,45.5,134.099C301.967,339.025,315.527,336.172,315.262,330.688L315.262,330.688z"/>
	</g>
</g>
</svg>
