<?xml version="1.0" encoding="utf-8"?>
<!-- Generator: Adobe Illustrator 15.1.0, SVG Export Plug-In . SVG Version: 6.00 Build 0)  -->
<!DOCTYPE svg PUBLIC "-//W3C//DTD SVG 1.1//EN" "http://www.w3.org/Graphics/SVG/1.1/DTD/svg11.dtd">
<svg version="1.1" id="Layer_1" xmlns="http://www.w3.org/2000/svg" xmlns:xlink="http://www.w3.org/1999/xlink" x="0px" y="0px"
	 width="512px" height="512px" viewBox="0 0 512 512" enable-background="new 0 0 512 512" xml:space="preserve">
<g>
	<path fill="#B18CC4" d="M513.5,462.5c0,27.614-22.386,50-50,50h-412c-27.614,0-50-22.386-50-50v-412c0-27.614,22.386-50,50-50h412
		c27.614,0,50,22.386,50,50V462.5z"/>
	<path fill="#F2D4FF" d="M507.5,456.5c0,27.614-22.386,50-50,50h-400c-27.614,0-50-22.386-50-50v-400c0-27.614,22.386-50,50-50h400
		c27.614,0,50,22.386,50,50V456.5z"/>
	<path fill="#B18CC4" d="M501.5,450.5c0,27.614-22.386,50-50,50h-388c-27.614,0-50-22.386-50-50v-388c0-27.614,22.386-50,50-50h388
		c27.614,0,50,22.386,50,50V450.5z"/>
	<g id="Helmet">
		<path fill="#F2D4FF" d="M367.535,126.477v11.969c-0.112,6.63-0.451,12.994-1,19.091l-22.326,31.468
			c-2.178,16.1-0.633,34.92,4.645,56.453l-29.232-21.123l7.319,25.177c-5.409,7.563-21.516,18.743-48.32,33.505
			c-9.474-11.787-14.883-30.004-16.24-54.623l36.151-36.764v-30.646l-40.413,38.184h-1.239l-40.384-38.184v30.646l36.151,36.764
			c-1.373,24.628-6.793,42.836-16.267,54.623c-26.787-14.762-42.894-25.941-48.32-33.505l7.325-25.177l-29.238,21.123
			c5.271-21.533,6.833-40.354,4.672-56.453l-22.353-31.468c-0.065-0.63-0.109-1.241-0.145-1.849
			c-0.453-5.529-0.737-11.211-0.855-17.035v-12.176c0.036-1.92,0.096-3.855,0.177-5.797c0.979-27.938,5.391-59.313,13.235-94.118
			c4.998,47.117,17.178,91.243,36.531,132.386l10.356-36.732c13.939-17.89,30.521-30.402,49.734-37.563
			c1.353,0.525,2.636,1.065,3.848,1.619c17.611,7.309,32.906,19.288,45.89,35.939l10.353,36.732
			c19.352-41.145,31.539-85.27,36.566-132.387C362.543,63.801,367.003,97.105,367.535,126.477z"/>
	</g>
	<path fill="#F2D4FF" d="M140.303,439.254l-9.123-6.395l-6.154-12.194l3.375-7.82l-17.447-59.58
		c-16.843,13.536-31.228,21.961-43.152,25.269c8.279-5.535,18.206-16.697,29.78-33.495l-14.854-9.104l18.308-5.223
		c-8.226-20.486-16.385-39.733-24.459-57.749c-13.72-30.46-27.253-57.339-40.602-80.605c8.728-18.19,13.552-39.848,14.516-64.939
		l1.003-0.293c14.329,20.621,30.092,36.237,47.259,46.854c1.307,26.794,4.391,56.719,9.273,89.775
		c2.905,19.525,6.417,40.131,10.565,61.819l18.208-5.47l-7.573,15.662c18.793,7.923,33.173,11.978,43.124,12.158
		c-11.839,3.646-28.488,4.305-49.97,1.994l17.45,59.576l7.063,4.778l1.396,13.582l-4.231,10.3l-0.375,0.291l-1.622-0.135
		l-1.301,0.988L140.303,439.254z"/>
	<g>
		<path fill="#F2D4FF" d="M326.513,446.049c0,0,1.009-26.518-40.036-40.268c0,0,26.967-74.307-32.44-132.057
			c0,0,57.373,34.805,64.935,27.471c0,0,27.529-17.445,32.529-50.445V484.5"/>
		<path fill="#F2D4FF" d="M376.493,446.049c0,0-1.005-26.518,40.04-40.268c0,0-26.966-74.307,32.44-132.057
			c0,0-57.378,34.805-64.938,27.471c0,0-28.535-17.445-32.535-50.445V484.5"/>
	</g>
	<path fill="#F2D4FF" d="M252.513,303c0.479,1.5-55.942-8-67.419-30.5c0,0-6.691,33.5-41.6,60.5c0,0,5.74,53.5,11.957,85
		s0,0,21.549,66.5l75.5-1"/>
	<path fill="#F2D4FF" d="M259.5,483.5v-180c0,0,6.998-0.664,9.5-3c0,0,30.768,53,9.5,108.25c0,0,40.75,14.75,39.25,37.25
		c0,0,14.75,5.167,7.75,37.5H259.5z"/>
	<line fill="none" stroke="#B18CC4" stroke-width="8" stroke-miterlimit="10" x1="189.5" y1="373.5" x2="291.5" y2="373.5"/>
	<path fill="#F2D4FF" d="M140.833,316.963c1.333-0.796,26-20.797,34-44.463s-39.058,5.572-47.333,14.334
		c-8.276,8.76,9.634,56.154,0,25.333"/>
</g>
</svg>
