<?xml version="1.0" encoding="utf-8"?>
<!-- Generator: Adobe Illustrator 15.1.0, SVG Export Plug-In . SVG Version: 6.00 Build 0)  -->
<!DOCTYPE svg PUBLIC "-//W3C//DTD SVG 1.1//EN" "http://www.w3.org/Graphics/SVG/1.1/DTD/svg11.dtd">
<svg version="1.1" id="Layer_1" xmlns="http://www.w3.org/2000/svg" xmlns:xlink="http://www.w3.org/1999/xlink" x="0px" y="0px"
	 width="512px" height="512px" viewBox="0.5 0.5 512 512" enable-background="new 0.5 0.5 512 512" xml:space="preserve">
<g>
	<path fill="#B18CC4" d="M512.5,462.5c0,27.614-22.386,50-50,50h-412c-27.614,0-50-22.386-50-50v-412c0-27.614,22.386-50,50-50h412
		c27.614,0,50,22.386,50,50V462.5z"/>
	<path fill="#F2D4FF" d="M506.5,456.5c0,27.614-22.386,50-50,50h-400c-27.614,0-50-22.386-50-50v-400c0-27.614,22.386-50,50-50h400
		c27.614,0,50,22.386,50,50V456.5z"/>
	<path fill="#B18CC4" d="M500.5,450.5c0,27.614-22.386,50-50,50h-388c-27.614,0-50-22.386-50-50v-388c0-27.614,22.386-50,50-50h388
		c27.614,0,50,22.386,50,50V450.5z"/>
	<g>
		<g>
			<path fill-rule="evenodd" clip-rule="evenodd" fill="#F2D4FF" d="M472.763,190.998c-0.001-0.283-0.003-0.566-0.005-0.85
				c-1.525-6.437-4.789-11.116-9.446-14.386c-12.198-0.489-26.644,1.295-37.433-0.619c-74.006,0.457-148.01,0.915-222.016,1.372
				c-8.314,3.813-23.297-1.903-34.02,1.061c-5.19,1.434-10.313,9.906-16.088,11.995c-17.038,6.161-49.036,2.695-73.994,2.158
				c-19.618-0.426-41.306-4.616-54.399,7.133c0.017,2.549,0.032,5.098,0.048,7.646c15.887,39.255,51.084,55.183,101.588,58.003
				c21.068,1.176,44.585,0.818,57.921,12.389c14.45,12.534,17.146,47.471-3.922,53.557c-9.342,2.697-16.958-1.718-25.519,0.157
				c-7.481,1.637-13.123,10.582-16.919,15.399c-4.868,6.18-10.163,11.153-10.071,22.153c6.458,7.89,21.759,4.372,36.609,4.873
				c14.044,0.475,28.639,3.074,38.279-0.236c5.381-1.849,9.42-11.169,17.779-13.705c15.292-4.639,33.717-0.209,54.44-0.337
				c15.552-0.097,33.474-3.878,44.233-0.273c6.273,2.103,8.567,12.006,16.246,13.495c3.717,0.722,11.014-0.471,17.862-0.11
				c15.864,0.832,47.836,4.489,50.997-7.113c4.283-15.728-15.332-26.532-18.925-33.871c-30.671,3.991-51.175-3.423-58.835-22.579
				c-7.047-17.625,2.477-35.795,11.625-45.957c21.681-24.079,63.45-41.104,99.198-53.294
				C452.554,204.093,471.469,199.712,472.763,190.998z"/>
		</g>
	</g>
</g>
</svg>
