<?xml version="1.0" encoding="utf-8"?>
<!-- Generator: Adobe Illustrator 15.1.0, SVG Export Plug-In . SVG Version: 6.00 Build 0)  -->
<!DOCTYPE svg PUBLIC "-//W3C//DTD SVG 1.1//EN" "http://www.w3.org/Graphics/SVG/1.1/DTD/svg11.dtd">
<svg version="1.1" id="Layer_1" xmlns="http://www.w3.org/2000/svg" xmlns:xlink="http://www.w3.org/1999/xlink" x="0px" y="0px"
	 width="512px" height="512px" viewBox="-228.5 -107.5 512 512" enable-background="new -228.5 -107.5 512 512"
	 xml:space="preserve">
<g>
	<path fill="#B18CC4" d="M283.5,354.5c0,27.614-22.386,50-50,50h-412c-27.614,0-50-22.386-50-50v-412c0-27.614,22.386-50,50-50h412
		c27.614,0,50,22.386,50,50V354.5z"/>
	<path fill="#F2D4FF" d="M276.5,349.5c0,27.614-22.386,50-50,50h-400c-27.614,0-50-22.386-50-50v-400c0-27.614,22.386-50,50-50h400
		c27.614,0,50,22.386,50,50V349.5z"/>
	<path fill="#B18CC4" d="M271.5,342.5c0,27.614-22.386,50-50,50h-388c-27.614,0-50-22.386-50-50v-388c0-27.614,22.386-50,50-50h388
		c27.614,0,50,22.386,50,50V342.5z"/>
	<g>
		<path fill="#F2D4FF" d="M-13.699,174.451c0.433,57.883,17.879,104.453,39.354,104.453c21.474,0,38.921-46.57,39.354-104.453
			H-13.699z"/>
		<path fill="#F2D4FF" d="M32.5,369.068c0,3.685-2.982,7.432-6.678,7.432h-0.335c-3.695,0-6.987-3.747-6.987-7.432V244.556
			c0-3.686,3.292-6.056,6.987-6.056h0.335c3.695,0,6.678,2.37,6.678,6.056V369.068z"/>
		<polygon fill="#F2D4FF" points="25.127,302.631 40.161,266.564 55.195,230.5 25.127,230.5 -4.939,230.5 10.094,266.564 		"/>
		<path fill="#F2D4FF" d="M112.5,177c0,6.352-5.148,11.5-11.5,11.5H-52c-6.352,0-11.5-5.148-11.5-11.5l0,0
			c0-6.352,5.148-11.5,11.5-11.5h153C107.352,165.5,112.5,170.648,112.5,177L112.5,177z"/>
		<circle fill="#F2D4FF" cx="24.939" cy="77.723" r="79.998"/>
		<path fill="#F2D4FF" d="M56.956-82.308v229.699c31.056-3.128,55.743-53.352,55.743-114.851
			C112.699-28.957,88.012-79.179,56.956-82.308z"/>
		<circle fill="#B18CC4" cx="21.246" cy="67.699" r="71.029"/>
		<circle fill="#F2D4FF" cx="30.804" cy="66.706" r="70.036"/>
		<polygon fill="#F2D4FF" points="25.791,223.513 67.008,203.006 108.223,182.5 25.791,182.5 -56.639,182.5 -15.424,203.006 		"/>
		<rect x="18.5" y="305.5" fill="#B18CC4" width="14" height="6"/>
		<rect x="18.5" y="324.5" fill="#B18CC4" width="14" height="6"/>
		<rect x="18.5" y="344.5" fill="#B18CC4" width="14" height="6"/>
		<rect x="-48.5" y="188.5" fill="#B18CC4" width="152" height="4"/>
		<rect x="-14.5" y="204.5" fill="#B18CC4" width="79" height="4"/>
	</g>
</g>
</svg>
