<?xml version="1.0" encoding="utf-8"?>
<!-- Generator: Adobe Illustrator 15.1.0, SVG Export Plug-In . SVG Version: 6.00 Build 0)  -->
<!DOCTYPE svg PUBLIC "-//W3C//DTD SVG 1.1//EN" "http://www.w3.org/Graphics/SVG/1.1/DTD/svg11.dtd">
<svg version="1.1" id="Layer_1" xmlns="http://www.w3.org/2000/svg" xmlns:xlink="http://www.w3.org/1999/xlink" x="0px" y="0px"
	 width="512px" height="512px" viewBox="-244 -80 512 512" enable-background="new -244 -80 512 512" xml:space="preserve">
<g>
	<path fill="#B18CC4" d="M268,382c0,27.614-22.386,50-50,50h-412c-27.614,0-50-22.386-50-50V-30c0-27.614,22.386-50,50-50h412
		c27.614,0,50,22.386,50,50V382z"/>
	<path fill="#F2D4FF" d="M262,376c0,27.614-22.386,50-50,50h-400c-27.614,0-50-22.386-50-50V-24c0-27.614,22.386-50,50-50h400
		c27.614,0,50,22.386,50,50V376z"/>
	<path fill="#B18CC4" d="M210.719,327.273"/>
	<g>
		<path fill="#B18CC4" d="M256,370c0,27.614-22.386,50-50,50h-388c-27.614,0-50-22.386-50-50V-18c0-27.614,22.386-50,50-50h388
			c27.614,0,50,22.386,50,50V370z"/>
		<g>
			<g>
				<g>
					<path fill="#F2D4FF" d="M134.244,397.367c0.518-0.151,1.035-0.3,1.553-0.449c1.021-1.266,2.066-2.518,3.139-3.755
						c18.038-20.832,68.102-52.02,89.084-64.629c5.398-3.244,8.873-5.259,9.384-5.552c-0.226-0.777-31.665-34.484-47.028-52.113
						c-15.117-17.348-27.699-38.125-43.919-53.014c-4.164-3.82-10.137-6.125-13.916-10.301c-6.588-7.275-9.394-18.617-19.942-19.509
						c-8.047-21.748-24.081-30.566-38.896-44.357c-10.409-9.688-23.589-21.635-28.761-35.49c-2.723-7.291-2.854-15.416-5.502-21.99
						C33.557,71.6,21.342,60.471,12.563,48.491C0.028,31.387-13.767,21.008-23.568-0.873c-5.946-1.461-10.542-5.365-19.119-2.064
						C-58.698-7.55-64.792-27.413-81.762-30.4c-5.868-1.032-12.058,0.758-17.668,0.045c-13.242-1.686-21.609-13.069-35.263-14.248
						c-2.591,0.748-5.183,1.494-7.774,2.242c-3,4.441-7.583,8.012-4.739,15.682c-6.178-2.158-19.48-6.764-25.666,1.508
						c-3.887,5.199,2.839,21.685,7.07,27.434c6.668,9.059,19.284,13.715,28.836,21.154c23.349,18.186,40.785,48.129,59.644,75.42
						c3.824,5.533,9.94,11.707,11.376,16.087c3.807,11.616-1.359,22.798-1.585,32.454c-17.606-2.039-28.461-16.307-45.279-19.779
						c-8.078-8.953-18.447-14.487-31.944-20.257c-8.836-3.778-26.676-13.536-38.806-9.016c-6.266,2.335-10.653,10.541-9.627,16.249
						c1.65,9.188,15.535,19.793,24.292,25.833c28.601,19.731,58.064,39.464,85.265,56.242c29.168,17.99,57.693,35.441,87.806,50.457
						c10.361,5.166,21.592,9.312,30.152,14.039c4.455,2.461,8.372,7.615,13.363,11.301c4.668,3.449,10.008,5.875,14.471,9.302
						C93.77,306.001,119.515,347.981,134.244,397.367z"/>
				</g>
			</g>
			<path fill="#F2D4FF" d="M134.244,397.367c78.42-27.98,73.496-29.908,102.934-75.162"/>
		</g>
	</g>
	<path fill="#F2D4FF" d="M228.834,328.046c-31.767,39.311-161.411,98.438-31.767,39.311"/>
	<polyline fill="#B18CC4" points="162.375,375.125 146,387.5 146,389 197.375,364.5 228.09,328.949 228.383,328.598 	"/>
	<polyline fill="#F2D4FF" points="191.963,369.684 196.666,366.833 203.5,359.417 201.166,366.833 	"/>
	<path fill="#B18CC4" d="M111.608,185.55"/>
</g>
</svg>
