<?xml version="1.0" encoding="utf-8"?>
<!-- Generator: Adobe Illustrator 15.1.0, SVG Export Plug-In . SVG Version: 6.00 Build 0)  -->
<!DOCTYPE svg PUBLIC "-//W3C//DTD SVG 1.1//EN" "http://www.w3.org/Graphics/SVG/1.1/DTD/svg11.dtd">
<svg version="1.1" id="Layer_1" xmlns="http://www.w3.org/2000/svg" xmlns:xlink="http://www.w3.org/1999/xlink" x="0px" y="0px"
	 width="512px" height="512px" viewBox="0 0 512 512" enable-background="new 0 0 512 512" xml:space="preserve">
<g>
	<g>
		<path fill="#B18CC4" d="M512,462c0,27.614-22.386,50-50,50H50c-27.614,0-50-22.386-50-50V50C0,22.386,22.386,0,50,0h412
			c27.614,0,50,22.386,50,50V462z"/>
		<path fill="#F2D4FF" d="M506,456c0,27.614-22.386,50-50,50H56c-27.614,0-50-22.386-50-50V56C6,28.386,28.386,6,56,6h400
			c27.614,0,50,22.386,50,50V456z"/>
		<path fill="#B18CC4" d="M500,450c0,27.614-22.386,50-50,50H62c-27.614,0-50-22.386-50-50V62c0-27.614,22.386-50,50-50h388
			c27.614,0,50,22.386,50,50V450z"/>
	</g>
	<g>
		<g>
			<path fill="#B18CC4" d="M275.633,292.579c0.764,0,2.042-1.158,0.734-1.158C275.604,291.421,274.325,292.579,275.633,292.579
				L275.633,292.579z"/>
		</g>
	</g>
	<g>
		<g>
			<path fill="#F2D4FF" d="M174.604,290.707c-35.306,9.184-30.554,0-125.777,29.389c50.752,49.592,109.537,109.249,180.943,135.92
				c59.119,22.079-28.686-8.266,86.059,31.226c22.799,7.847,44.133-51.431,61.785-67.961c13.239-12.857,25.021-29.04,41.927-40.407
				c73.691-49.553-18.982-49.044-59.579-75.309"/>
			<g>
				<path fill="#F2D4FF" d="M174.499,290.316c-13.448,3.478-27.108,4.869-40.768,7.164c-28.86,4.852-57.102,13.625-85.009,22.225
					c-0.18,0.057-1.153,0.396-0.798,0.744c38.665,37.792,77.261,76.27,122.722,105.984c20.813,13.604,42.824,24.117,66.042,32.895
					c4.107,1.553,8.217,3.104,12.28,4.77c0.774,0.317,1.546,0.642,2.304,0.993c1.38,0.644-0.467-0.181,1.898-0.374
					c-0.234,0.021-3.569,0.259-1.311,1.12c8.415,3.21,17.034,5.94,25.545,8.871c11.927,4.105,23.854,8.207,35.779,12.313
					c5.719,1.968,10.615,1.563,15.878-1.515c6.563-3.837,11.514-10.364,15.892-16.409c5.83-8.052,10.839-16.684,15.988-25.176
					c4.531-7.475,9.063-15.097,14.771-21.752c7.704-8.984,16.401-17.507,24.632-26.028c9.749-10.092,21.16-17.283,32.001-26.002
					c5.659-4.551,11.514-9.869,14.546-16.608c4.831-10.736-5.896-17.778-14.23-21.818c-14.831-7.19-31.204-11.056-46.646-16.698
					c-8.697-3.18-17.321-6.81-25.15-11.802c-0.518-0.33-2.21,0.45-1.808,0.707c14.145,9.019,30.592,13.878,46.403,19.069
					c12.313,4.043,29.092,7.764,37.88,18.105c10.761,12.662-10.854,27.899-19.276,34.018c-10.912,7.924-20.729,15.922-29.971,25.796
					c-7.43,7.938-15.708,15.546-22.428,24.085c-11.757,14.939-19.571,32.619-31.145,47.726c-4.757,6.21-11.529,14.488-20.039,14.768
					c-5.746,0.188-12.443-3.613-17.789-5.453c-6.039-2.077-12.075-4.154-18.112-6.231c-10.16-3.496-20.368-6.882-30.469-10.548
					c-3.524-1.278-2.251,1.988-0.371-0.118c0.413-0.462-10.267-4.654-10.82-4.867c-22.098-8.485-43.279-17.661-63.508-30.118
					c-46.366-28.554-85.521-67.169-124.215-105.056c-1.822-1.783-3.645-3.566-5.469-5.35c-0.266,0.248-0.532,0.496-0.798,0.744
					c28.134-8.667,56.594-17.489,85.698-22.315c13.44-2.229,26.851-3.651,40.079-7.073
					C175.854,290.802,175.642,290.021,174.499,290.316L174.499,290.316z"/>
			</g>
		</g>
		<g>
			<path fill="#F2D4FF" d="M362.168,306.152c-28.687-57.371-42.629-126.273-83.854-198.596
				c-16.998-29.823-117.715-30.808-156.67-46.339C92.949,49.776,64.272,83.284,40,103.144
				C112.607,86.679,126.947,78.4,168.873,144.6c30.893,46.339,32.211,24.742,7.938,150.521"/>
			<g>
				<path fill="#F2D4FF" d="M363.134,305.895c-24.897-50.08-39.074-104.731-62.056-155.679
					c-6.35-14.075-13.326-27.861-20.889-41.324c-3.244-5.778-7.741-9.802-13.414-13.168c-14.797-8.783-32.857-12.326-49.511-15.66
					c-29.66-5.938-60.616-8.19-89.515-17.446c-6.825-2.186-12.773-4.583-20.106-4.273c-7.9,0.333-15.466,3.655-22.263,7.446
					c-17.277,9.636-31.03,24.659-46.17,37.137c-0.747,0.615,0.525,0.874,0.941,0.779c18.95-4.306,38.101-9.909,57.554-11.343
					c14.503-1.07,27.485,2.715,38.614,12.169c14.622,12.424,24.15,29.612,34.875,45.204c5.451,7.923,11.673,15.464,16.396,23.861
					c6.05,10.755,5.551,22.777,4.137,34.672c-3.47,29.192-10.321,58.115-15.889,86.949c-0.164,0.848,1.799,0.551,1.943-0.199
					c4.586-23.752,9.501-47.461,13.557-71.313c1.926-11.327,4.039-23.097,3.098-34.632c-0.606-7.423-3.445-13.986-7.433-20.192
					c-6.266-9.75-13.476-18.863-19.756-28.616c-12.5-19.412-27.857-43.261-52.19-48.289c-9.889-2.043-20.224-0.858-30.075,0.776
					c-15.182,2.518-30.137,6.419-45.134,9.827c0.313,0.26,0.627,0.52,0.941,0.779c10.132-8.351,19.594-17.478,29.819-25.721
					c9.985-8.05,21.307-15.87,34.255-17.819c9.873-1.486,18.666,3.246,27.913,5.796c8.626,2.379,17.441,4.074,26.239,5.679
					c20.202,3.684,40.551,6.523,60.67,10.659c16.6,3.412,34.8,7.256,49.017,16.978c3.487,2.385,6.563,5.376,8.721,9.025
					c6.226,10.526,11.7,21.549,16.979,32.573c9.13,19.06,17.042,38.678,24.485,58.448c13.556,36,25.149,72.914,42.313,107.436
					C361.572,307.156,363.465,306.561,363.134,305.895L363.134,305.895z"/>
			</g>
		</g>
	</g>
	<polygon fill="#B18CC4" points="271.477,108.803 261.891,128.327 272.541,147.29 251.011,144.208 236.267,160.196 232.544,138.769 
		212.783,129.686 232.012,119.524 234.543,97.923 250.148,113.071 	"/>
	<polygon fill="#B18CC4" points="284.148,165.308 291.824,189.402 316.023,196.739 295.48,211.484 295.98,236.766 275.609,221.784 
		251.72,230.073 259.673,206.069 244.408,185.91 269.693,186.056 	"/>
	<polygon fill="#B18CC4" points="149.848,88.461 160.789,100.425 176.847,98.193 168.85,112.296 175.934,126.878 160.051,123.631 
		148.371,134.875 146.552,118.766 132.249,111.132 147.008,104.423 	"/>
	<polygon fill="#B18CC4" points="226.978,221.961 244.524,245.866 274.164,244.963 256.852,269.037 266.869,296.947 
		238.623,287.922 215.175,306.074 215.03,276.421 190.521,259.73 218.677,250.429 	"/>
	<polygon fill="#B18CC4" points="343.159,278.736 324.891,285.693 320.267,304.688 308.004,289.463 288.511,290.934 299.2,274.566 
		291.779,256.482 310.647,261.591 325.554,248.944 326.524,268.468 	"/>
	<g>
		<path fill="#B18CC4" d="M180.5,260c0.114,6.482-0.289,12.891-0.811,19.279c-0.554,6.387-1.302,12.744-2.215,19.078
			s-1.999,12.644-3.278,18.924c-1.309,6.277-2.742,12.535-4.695,18.719c-0.12-6.482,0.28-12.893,0.805-19.281
			c0.554-6.386,1.301-12.744,2.222-19.076c0.919-6.334,2.005-12.643,3.285-18.922C177.123,272.443,178.553,266.186,180.5,260z"/>
	</g>
	<g>
		<path fill="#B18CC4" d="M345.486,257.7c3.069,5.711,5.646,11.592,8.107,17.512c2.434,5.931,4.681,11.925,6.77,17.974
			s4.013,12.154,5.752,18.323c1.711,6.181,3.303,12.399,4.397,18.791c-3.075-5.709-5.654-11.588-8.114-17.509
			c-2.433-5.932-4.681-11.925-6.763-17.977c-2.082-6.051-4.007-12.156-5.745-18.326C348.183,270.309,346.587,264.09,345.486,257.7z"
			/>
	</g>
	<g>
		<path fill="#B18CC4" d="M33.529,290.691c9.853,7.886,19.367,16.129,28.762,24.5c4.729,4.15,9.336,8.434,14,12.652L90.1,340.701
			l13.624,13.052c4.476,4.42,9.016,8.771,13.428,13.259c8.891,8.904,17.66,17.938,26.088,27.331
			c-9.857-7.881-19.374-16.122-28.768-24.495c-4.731-4.148-9.333-8.436-14-12.652l-13.804-12.861l-13.619-13.057
			c-4.479-4.418-9.015-8.773-13.428-13.26C50.732,309.111,41.961,300.081,33.529,290.691z"/>
	</g>
	<g>
		<path fill="#B18CC4" d="M483.854,294.502c-7.194,8.65-14.738,16.953-22.404,25.133c-7.646,8.201-15.468,16.227-23.387,24.151
			c-7.93,7.918-15.962,15.731-24.168,23.371c-8.186,7.659-16.495,15.194-25.157,22.378c7.189-8.655,14.731-16.96,22.399-25.139
			c7.646-8.199,15.468-16.226,23.393-24.146c7.934-7.913,15.965-15.729,24.172-23.365
			C466.887,309.227,475.196,301.689,483.854,294.502z"/>
	</g>
	<g>
		<g>
			<polygon fill="#B18CC4" points="321.068,476.671 274.111,457.183 322.756,471.964 			"/>
		</g>
		<g>
			<polygon fill="#B18CC4" points="317.027,472.495 346.159,438 321.02,475.505 			"/>
		</g>
	</g>
</g>
</svg>
