<?xml version="1.0" encoding="utf-8"?>
<!-- Generator: Adobe Illustrator 15.1.0, SVG Export Plug-In . SVG Version: 6.00 Build 0)  -->
<!DOCTYPE svg PUBLIC "-//W3C//DTD SVG 1.1//EN" "http://www.w3.org/Graphics/SVG/1.1/DTD/svg11.dtd">
<svg version="1.1" id="Layer_1" xmlns="http://www.w3.org/2000/svg" xmlns:xlink="http://www.w3.org/1999/xlink" x="0px" y="0px"
	 width="512px" height="512px" viewBox="-107 -27.146 512 512" enable-background="new -107 -27.146 512 512" xml:space="preserve">
<path fill="#B18CC4" d="M405,434.854c0,27.614-22.386,50-50,50H-57c-27.614,0-50-22.386-50-50v-412c0-27.614,22.386-50,50-50h412
	c27.614,0,50,22.386,50,50V434.854z"/>
<path fill="#F2D4FF" d="M399,428.854c0,27.614-22.386,50-50,50H-51c-27.614,0-50-22.386-50-50v-400c0-27.614,22.386-50,50-50h400
	c27.614,0,50,22.386,50,50V428.854z"/>
<path fill="#B18CC4" d="M393,422.854c0,27.614-22.386,50-50,50H-45c-27.614,0-50-22.386-50-50v-388c0-27.614,22.386-50,50-50h388
	c27.614,0,50,22.386,50,50V422.854z"/>
<g>
	<g>
		<path fill="#F2D4FF" d="M-32,215.854c0,0-2-39.545,38-67.643v-39.545c0,0,4-20.813,18-20.813s172,0,172,0l5,128"/>
		<path fill="#F2D4FF" d="M328.992,215.854c0,0,2.008-39.545-37.992-67.643v-39.545c0,0-4.017-20.813-18.017-20.813s-172,0-172,0
			l-4.996,128"/>
	</g>
	<g>
		<polyline fill="#F2D4FF" points="-31.986,214.729 -7.547,358.854 283,358.854 283,214.854 		"/>
		<polyline fill="#F2D4FF" points="329.975,214.729 305.524,358.854 15,358.854 15,214.854 		"/>
	</g>
	<g>
		<polyline fill="#B18CC4" points="-13.042,226.888 8.436,349.854 263,349.854 263,226.854 		"/>
		<polyline fill="#B18CC4" points="304.188,226.888 282.854,349.854 28,349.854 28,226.854 		"/>
	</g>
	<g>
		<path fill="#B18CC4" d="M-9.176,201.708c0,0-1.824-32.35,32.176-55.333v-32.35c0,0,3.751-17.172,15.67-17.172
			c11.918,0,146.422,0,146.422,0l4.172,104.781"/>
		<path fill="#B18CC4" d="M298.325,201.708c0,0,1.675-32.35-32.325-55.333v-32.35c0,0-3.454-17.172-15.372-17.172
			s-146.423,0-146.423,0l-4.244,104.781"/>
	</g>
	<g>
		<path fill="#F2D4FF" d="M21.477,203.208c0,0-0.477-34.046,25.523-58.235v-34.047c0,0,3.759-18.072,13.35-18.072
			c9.591,0,117.83,0,117.83,0l3.172,110.277"/>
		<path fill="#F2D4FF" d="M269.658,203.208c0,0,1.342-34.046-25.658-58.235v-34.047c0,0-3.49-18.072-13.081-18.072
			s-117.831,0-117.831,0l-3.237,110.277"/>
	</g>
	<g>
		<g>
			<path fill="#B18CC4" d="M21.372,181.722c82.335,0,164.669,0,247.004,0c3.468,0,8.074-2.644,8.474-6.398
				c0.438-4.094-4.05-5.337-7.214-5.337c-82.335,0-164.67,0-247.005,0c-3.468,0-8.074,2.644-8.474,6.398
				C13.721,180.479,18.207,181.722,21.372,181.722L21.372,181.722z"/>
		</g>
	</g>
	<g>
		<g>
			<path fill="#B18CC4" d="M35.545,150.636c71.373,0,142.746,0,214.119,0c3.58,0,8.141-1.068,10.156-4.386
				c1.886-3.104-1.589-5.179-4.359-5.179c-71.372,0-142.745,0-214.118,0c-3.581,0-8.141,1.068-10.157,4.386
				C29.3,148.562,32.775,150.636,35.545,150.636L35.545,150.636z"/>
		</g>
	</g>
	<g>
		<g>
			<path fill="#B18CC4" d="M44.802,118.628c65.604,0,131.208,0,196.813,0c3.578,0,8.14-1.069,10.157-4.383
				c1.889-3.103-1.592-5.168-4.356-5.168c-65.604,0-131.208,0-196.813,0c-3.579,0-8.14,1.069-10.157,4.383
				C38.556,116.563,42.036,118.628,44.802,118.628L44.802,118.628z"/>
		</g>
	</g>
	<g>
		<polyline fill="#F2D4FF" points="7.167,226.888 25.525,349.854 246,349.854 246,226.854 		"/>
		<polyline fill="#F2D4FF" points="280.969,226.888 262.746,349.854 42,349.854 42,226.854 		"/>
	</g>
	<g>
		<g>
			<path fill="#B18CC4" d="M7.115,285.021c89.491,0,178.982,0,268.473,0c3.593,0,8.147-1.06,10.151-4.407
				c1.862-3.113-1.571-5.259-4.38-5.259c-89.491,0-178.983,0-268.475,0c-3.592,0-8.147,1.06-10.151,4.407
				C0.871,282.875,4.306,285.021,7.115,285.021L7.115,285.021z"/>
		</g>
	</g>
	<g>
		<g>
			<path fill="#B18CC4" d="M7.101,309.633c87.183,0,174.364,0,261.547,0c3.579,0,8.141-1.067,10.156-4.385
				c1.888-3.104-1.59-5.176-4.357-5.176c-87.184,0-174.365,0-261.547,0c-3.58,0-8.141,1.068-10.157,4.385
				C0.855,307.562,4.332,309.633,7.101,309.633L7.101,309.633z"/>
		</g>
	</g>
	<g>
		<g>
			<path fill="#B18CC4" d="M10.581,336.633c87.347,0,174.694,0,262.041,0c3.58,0,8.141-1.067,10.157-4.385
				c1.887-3.104-1.59-5.176-4.358-5.176c-87.347,0-174.694,0-262.041,0c-3.58,0-8.141,1.068-10.157,4.385
				C4.336,334.562,7.812,336.633,10.581,336.633L10.581,336.633z"/>
		</g>
	</g>
	<g>
		<circle fill="#B18CC4" cx="145.521" cy="246.708" r="12.521"/>
		<g>
			<polyline fill="#B18CC4" points="137.227,249.9 138.313,265.854 151,265.854 151,249.854 			"/>
			<polyline fill="#B18CC4" points="152.939,249.9 152.02,265.854 139,265.854 139,249.854 			"/>
		</g>
	</g>
	<g>
		<g>
			<path fill="#B18CC4" d="M-52.385,220.021c129.156,0,258.312,0,387.468,0c3.593,0,8.147-1.058,10.151-4.406
				c1.862-3.114-1.571-5.259-4.381-5.259c-129.155,0-258.313,0-387.469,0c-3.592,0-8.147,1.058-10.151,4.406
				C-58.629,217.875-55.194,220.021-52.385,220.021L-52.385,220.021z"/>
		</g>
	</g>
</g>
<polygon fill="#F2D4FF" points="-32,-6.891 -12.645,28.499 22.745,47.854 -12.645,67.208 -32,102.598 -51.355,67.208 
	-86.745,47.854 -51.355,28.499 "/>
<polygon fill="#F2D4FF" points="-20,142.854 -28.121,137.216 -38,136.854 -32.364,128.732 -32,118.854 -23.879,124.491 -14,124.854 
	-19.636,132.975 "/>
<polygon fill="#F2D4FF" points="75,78.854 51.961,71.298 28.487,77.367 36.042,54.329 29.975,30.854 53.013,38.409 76.487,32.34 
	68.932,55.378 "/>
<polygon fill="#F2D4FF" points="269.145,414.819 249.461,428.974 240.521,451.512 226.367,431.827 203.829,422.889 223.514,408.733 
	232.452,386.196 246.607,405.881 "/>
<polygon fill="#F2D4FF" points="346.299,361.856 349.561,402.061 373.997,434.153 333.793,437.416 301.701,461.851 298.439,421.646 
	274.003,389.554 314.207,386.291 "/>
<polygon fill="#F2D4FF" points="252.275,394.411 250.891,384.623 244.442,377.13 254.23,375.744 261.724,369.297 263.109,379.085 
	269.557,386.578 259.77,387.963 "/>
</svg>
