<?xml version="1.0" encoding="utf-8"?>
<!-- Generator: Adobe Illustrator 15.1.0, SVG Export Plug-In . SVG Version: 6.00 Build 0)  -->
<!DOCTYPE svg PUBLIC "-//W3C//DTD SVG 1.1//EN" "http://www.w3.org/Graphics/SVG/1.1/DTD/svg11.dtd">
<svg version="1.1" id="Layer_1" xmlns="http://www.w3.org/2000/svg" xmlns:xlink="http://www.w3.org/1999/xlink" x="0px" y="0px"
	 width="512px" height="512px" viewBox="-176.5 -104.5 512 512" enable-background="new -176.5 -104.5 512 512"
	 xml:space="preserve">
<g>
	<path fill="#B18CC4" d="M335.5,357.5c0,27.614-22.386,50-50,50h-412c-27.614,0-50-22.386-50-50v-412c0-27.614,22.386-50,50-50h412
		c27.614,0,50,22.386,50,50V357.5z"/>
	<path fill="#F2D4FF" d="M328.5,352.5c0,27.614-22.386,50-50,50h-400c-27.614,0-50-22.386-50-50v-400c0-27.614,22.386-50,50-50h400
		c27.614,0,50,22.386,50,50V352.5z"/>
	<path fill="#B18CC4" d="M323.5,345.5c0,27.614-22.386,50-50,50h-388c-27.614,0-50-22.386-50-50v-388c0-27.614,22.386-50,50-50h388
		c27.614,0,50,22.386,50,50V345.5z"/>
	<g>
		<circle fill="#F2D4FF" stroke="#F2D4FF" stroke-width="4" stroke-miterlimit="10" cx="81.494" cy="91.447" r="138.994"/>
		<path fill="#F2D4FF" stroke="#F2D4FF" stroke-width="4" stroke-miterlimit="10" d="M218.5,355.106
			c0,6.259-4.34,11.394-10.568,11.394H-46.221c-6.229,0-11.279-5.135-11.279-11.394V99.009c0-6.259,5.049-11.509,11.279-11.509
			h254.153c6.229,0,10.568,5.25,10.568,11.509V355.106z"/>
		<ellipse fill="#B18CC4" cx="26.187" cy="116.126" rx="42.591" ry="61.271"/>
		<ellipse fill="#B18CC4" cx="133.784" cy="116.126" rx="42.591" ry="61.271"/>
		<circle fill="#B18CC4" cx="81.014" cy="249.599" r="46.792"/>
	</g>
</g>
</svg>
