<?xml version="1.0" encoding="utf-8"?>
<!-- Generator: Adobe Illustrator 15.1.0, SVG Export Plug-In . SVG Version: 6.00 Build 0)  -->
<!DOCTYPE svg PUBLIC "-//W3C//DTD SVG 1.1//EN" "http://www.w3.org/Graphics/SVG/1.1/DTD/svg11.dtd">
<svg version="1.1" id="Layer_1" xmlns="http://www.w3.org/2000/svg" xmlns:xlink="http://www.w3.org/1999/xlink" x="0px" y="0px"
	 width="512px" height="512px" viewBox="-295.5 -50.5 512 512" enable-background="new -295.5 -50.5 512 512" xml:space="preserve">
<g>
	<path fill="#B18CC4" d="M216.5,411.5c0,27.614-22.386,50-50,50h-412c-27.614,0-50-22.386-50-50v-412c0-27.614,22.386-50,50-50h412
		c27.614,0,50,22.386,50,50V411.5z"/>
	<path fill="#F2D4FF" d="M210.5,405.5c0,27.614-22.386,50-50,50h-400c-27.614,0-50-22.386-50-50V5.5c0-27.614,22.386-50,50-50h400
		c27.614,0,50,22.386,50,50V405.5z"/>
	<path fill="#B18CC4" d="M204.5,399.5c0,27.614-22.386,50-50,50h-388c-27.614,0-50-22.386-50-50v-388c0-27.614,22.386-50,50-50h388
		c27.614,0,50,22.386,50,50V399.5z"/>
	<g>
		<g>
			<path fill="#F2D4FF" d="M105.764,414.517c0-0.604,0.012-1.204,0.012-1.81c0-142.546-65.104-258.104-145.412-258.104
				c-80.306,0-145.41,115.559-145.41,258.104c0,0.605,0.011,1.206,0.013,1.81H105.764z"/>
			<circle fill="#F2D4FF" cx="-39.703" cy="96.678" r="103.659"/>
		</g>
		<path fill="#F2D4FF" d="M105.775,414.5c0,2.197-2.43,4-5.424,4h-279.975c-2.995,0-5.425-1.803-5.425-4l0,0c0-2.197,2.43-4,5.425-4
			h279.975C103.346,410.5,105.775,412.303,105.775,414.5L105.775,414.5z"/>
	</g>
</g>
</svg>
