<?xml version="1.0" encoding="utf-8"?>
<!-- Generator: Adobe Illustrator 15.1.0, SVG Export Plug-In . SVG Version: 6.00 Build 0)  -->
<!DOCTYPE svg PUBLIC "-//W3C//DTD SVG 1.1//EN" "http://www.w3.org/Graphics/SVG/1.1/DTD/svg11.dtd">
<svg version="1.1" id="Layer_1" xmlns="http://www.w3.org/2000/svg" xmlns:xlink="http://www.w3.org/1999/xlink" x="0px" y="0px"
	 width="512px" height="512px" viewBox="-120.5 -58.5 512 512" enable-background="new -120.5 -58.5 512 512" xml:space="preserve">
<g>
	<path fill="#B18CC4" d="M391.5,403.5c0,27.614-22.386,50-50,50h-412c-27.614,0-50-22.386-50-50v-412c0-27.614,22.386-50,50-50h412
		c27.614,0,50,22.386,50,50V403.5z"/>
	<path fill="#F2D4FF" d="M385.5,397.5c0,27.614-22.386,50-50,50h-400c-27.614,0-50-22.386-50-50v-400c0-27.614,22.386-50,50-50h400
		c27.614,0,50,22.386,50,50V397.5z"/>
	<path fill="#B18CC4" d="M379.5,391.5c0,27.614-22.386,50-50,50h-388c-27.614,0-50-22.386-50-50V3.5c0-27.614,22.386-50,50-50h388
		c27.614,0,50,22.386,50,50V391.5z"/>
	<g>
		<rect x="-22.5" y="9.5" fill="#F2D4FF" width="269" height="391"/>
		<rect x="22.5" y="-5.5" fill="#F2D4FF" width="270" height="391"/>
		<polyline fill="#F2D4FF" points="-23.099,9.637 23.22,-4.838 292.443,385.971 246.125,400.444 13.982,326.743 		"/>
		<ellipse fill="#B18CC4" cx="-1.749" cy="39.671" rx="17.007" ry="4.704"/>
		<ellipse fill="#B18CC4" cx="-1.749" cy="62.105" rx="17.007" ry="4.703"/>
		<ellipse fill="#B18CC4" cx="-1.749" cy="85.266" rx="17.007" ry="4.705"/>
		<ellipse fill="#B18CC4" cx="-1.749" cy="107.7" rx="17.007" ry="4.704"/>
		<ellipse fill="#B18CC4" cx="-1.749" cy="133.03" rx="17.007" ry="4.704"/>
		<ellipse fill="#B18CC4" cx="-1.749" cy="155.466" rx="17.007" ry="4.704"/>
		<ellipse fill="#B18CC4" cx="-1.749" cy="178.625" rx="17.007" ry="4.705"/>
		<ellipse fill="#B18CC4" cx="-1.749" cy="201.061" rx="17.007" ry="4.705"/>
		<ellipse fill="#B18CC4" cx="-1.749" cy="224.942" rx="17.007" ry="4.704"/>
		<ellipse fill="#B18CC4" cx="-1.749" cy="247.378" rx="17.007" ry="4.704"/>
		<ellipse fill="#B18CC4" cx="-1.749" cy="270.537" rx="17.007" ry="4.704"/>
		<ellipse fill="#B18CC4" cx="-1.749" cy="292.973" rx="17.007" ry="4.705"/>
		<ellipse fill="#B18CC4" cx="-1.749" cy="312.513" rx="17.007" ry="4.704"/>
		<ellipse fill="#B18CC4" cx="-1.749" cy="334.948" rx="17.007" ry="4.704"/>
		<ellipse fill="#B18CC4" cx="-1.749" cy="358.107" rx="17.007" ry="4.705"/>
		<ellipse fill="#B18CC4" cx="-1.749" cy="380.542" rx="17.007" ry="4.704"/>
		<rect x="-33.5" y="9.5" fill="#B18CC4" width="274" height="5"/>
		
			<rect x="238.772" y="-0.375" transform="matrix(0.9523 -0.3051 0.3051 0.9523 12.239 83.3593)" fill="#B18CC4" width="68.121" height="5.79"/>
		<rect x="239.5" y="10.5" fill="#B18CC4" width="7" height="395"/>
		<rect x="256.5" y="6.5" fill="#B18CC4" width="7" height="396"/>
		<rect x="272.5" y="0.5" fill="#B18CC4" width="7" height="394"/>
		<g>
			<path fill="#B18CC4" stroke="#B18CC4" stroke-width="4" stroke-miterlimit="10" d="M33.089,169.796
				c2.528-0.459,6.205-0.804,9.593-0.804c5.343,0,8.848,1.034,11.203,3.159c1.896,1.724,3.045,4.366,3.045,7.411
				c0,5.056-3.218,8.445-7.238,9.824v0.172c2.93,1.034,4.71,3.792,5.63,7.813c1.264,5.4,2.183,9.134,2.987,10.628h-5.171
				c-0.632-1.149-1.493-4.424-2.527-9.249c-1.149-5.343-3.274-7.354-7.813-7.526h-4.711V208h-4.998V169.796z M38.087,187.434H43.2
				c5.343,0,8.732-2.931,8.732-7.354c0-4.999-3.619-7.182-8.905-7.182c-2.412,0-4.078,0.172-4.94,0.402V187.434z"/>
			<path fill="#B18CC4" stroke="#B18CC4" stroke-width="4" stroke-miterlimit="10" d="M83.992,189.846H68.998v13.961h16.775V208
				H63.942v-38.721h20.969v4.193H68.998v12.237h14.994V189.846z"/>
			<path fill="#B18CC4" stroke="#B18CC4" stroke-width="4" stroke-miterlimit="10" d="M119.268,206.794
				c-1.78,0.919-5.515,1.838-10.226,1.838c-10.915,0-19.073-6.894-19.073-19.647c0-12.18,8.215-20.337,20.223-20.337
				c4.768,0,7.87,1.034,9.191,1.724l-1.264,4.078c-1.839-0.919-4.539-1.608-7.756-1.608c-9.077,0-15.109,5.803-15.109,15.971
				c0,9.537,5.458,15.569,14.822,15.569c3.103,0,6.204-0.632,8.215-1.608L119.268,206.794z"/>
			<path fill="#B18CC4" stroke="#B18CC4" stroke-width="4" stroke-miterlimit="10" d="M130.588,169.279V208h-5.056v-38.721H130.588z
				"/>
			<path fill="#B18CC4" stroke="#B18CC4" stroke-width="4" stroke-miterlimit="10" d="M139.321,169.738
				c2.413-0.401,5.573-0.746,9.594-0.746c4.941,0,8.561,1.148,10.858,3.217c2.068,1.839,3.39,4.653,3.39,8.101
				c0,3.504-1.034,6.262-2.987,8.272c-2.7,2.815-6.951,4.251-11.835,4.251c-1.493,0-2.872-0.057-4.021-0.345V208h-4.998V169.738z
				 M144.319,188.41c1.092,0.287,2.471,0.401,4.137,0.401c6.032,0,9.709-2.987,9.709-8.215c0-5.171-3.677-7.641-9.135-7.641
				c-2.183,0-3.849,0.172-4.711,0.402V188.41z"/>
			<path fill="#B18CC4" stroke="#B18CC4" stroke-width="4" stroke-miterlimit="10" d="M189.88,189.846h-14.994v13.961h16.775V208
				H169.83v-38.721h20.969v4.193h-15.913v12.237h14.994V189.846z"/>
			<path fill="#B18CC4" stroke="#B18CC4" stroke-width="4" stroke-miterlimit="10" d="M197.522,201.91
				c2.24,1.437,5.458,2.528,8.904,2.528c5.113,0,8.101-2.7,8.101-6.607c0-3.562-2.068-5.688-7.296-7.641
				c-6.319-2.298-10.226-5.63-10.226-11.03c0-6.032,4.998-10.513,12.523-10.513c3.906,0,6.837,0.919,8.503,1.896l-1.379,4.079
				c-1.207-0.747-3.792-1.839-7.296-1.839c-5.286,0-7.297,3.16-7.297,5.803c0,3.619,2.355,5.4,7.698,7.469
				c6.55,2.527,9.824,5.688,9.824,11.375c0,5.975-4.366,11.202-13.501,11.202c-3.733,0-7.813-1.148-9.881-2.527L197.522,201.91z"/>
		</g>
	</g>
</g>
</svg>
