<?xml version="1.0" encoding="utf-8"?>
<!-- Generator: Adobe Illustrator 15.1.0, SVG Export Plug-In . SVG Version: 6.00 Build 0)  -->
<!DOCTYPE svg PUBLIC "-//W3C//DTD SVG 1.1//EN" "http://www.w3.org/Graphics/SVG/1.1/DTD/svg11.dtd">
<svg version="1.1" id="Layer_1" xmlns="http://www.w3.org/2000/svg" xmlns:xlink="http://www.w3.org/1999/xlink" x="0px" y="0px"
	 width="512px" height="512px" viewBox="-104.5 -64.5 512 512" enable-background="new -104.5 -64.5 512 512" xml:space="preserve">
<g>
	<path fill="#B18CC4" d="M407.5,397.5c0,27.614-22.386,50-50,50h-412c-27.614,0-50-22.386-50-50v-412c0-27.614,22.386-50,50-50h412
		c27.614,0,50,22.386,50,50V397.5z"/>
	<path fill="#F2D4FF" d="M401.5,391.5c0,27.614-22.386,50-50,50h-400c-27.614,0-50-22.386-50-50v-400c0-27.614,22.386-50,50-50h400
		c27.614,0,50,22.386,50,50V391.5z"/>
	<path fill="#B18CC4" d="M395.5,385.5c0,27.614-22.386,50-50,50h-388c-27.614,0-50-22.386-50-50v-388c0-27.614,22.386-50,50-50h388
		c27.614,0,50,22.386,50,50V385.5z"/>
	<g>
		<g>
			
				<rect x="-63.449" y="14.48" transform="matrix(-0.9978 -0.0664 0.0664 -0.9978 85.7332 196.3193)" fill="#F2D4FF" width="219.157" height="164.509"/>
			<path fill="#F2D4FF" d="M160.925,19.427"/>
			<polyline fill="#F2D4FF" points="161.178,21.355 155.003,185.5 150.5,185.5 			"/>
			
				<rect x="-32.142" y="165.325" transform="matrix(-0.998 0.0628 -0.0628 -0.998 -32.9032 545.7084)" fill="#F2D4FF" width="14.231" height="214.025"/>
			
				<rect x="34.456" y="126.616" transform="matrix(-0.998 0.0628 -0.0628 -0.998 97.7386 464.1846)" fill="#F2D4FF" width="14.231" height="214.026"/>
			<rect x="-25.5" y="291.5" fill="#F2D4FF" width="176" height="88"/>
			<path fill="#F2D4FF" d="M136.825,19.427"/>
			<polyline fill="#F2D4FF" points="136.697,21.355 142.747,185.5 147.5,185.5 			"/>
			
				<rect x="-20.934" y="279.134" transform="matrix(0.9939 -0.11 0.11 0.9939 -31.8573 3.0994)" fill="#F2D4FF" width="66.181" height="22.191"/>
			<rect x="41.5" y="275.5" fill="#F2D4FF" width="109" height="88"/>
			<g>
				<polygon fill="#B18CC4" points="-2.699,3.076 -10.373,2.564 -21.942,176.299 -2.699,177.579 				"/>
				<polygon fill="#B18CC4" points="-9.929,177.068 -2.256,177.579 9.313,3.847 -9.929,2.564 				"/>
			</g>
			<g>
				<polygon fill="#B18CC4" points="67.67,9.171 59.997,8.659 48.428,182.394 67.67,183.674 				"/>
				<polygon fill="#B18CC4" points="60.441,183.164 68.114,183.674 79.683,9.941 60.441,8.659 				"/>
			</g>
			<g>
				<polygon fill="#B18CC4" points="127.397,15.613 119.724,15.102 108.155,188.836 127.397,190.117 				"/>
				<polygon fill="#B18CC4" points="120.167,189.606 127.841,190.117 139.41,16.384 120.167,15.102 				"/>
			</g>
			
				<rect x="146.602" y="14.469" transform="matrix(0.9978 -0.0664 0.0664 0.9978 -5.857 17.2236)" fill="#F2D4FF" width="219.156" height="164.509"/>
			<path fill="#F2D4FF" d="M140.24,18.288"/>
			<polyline fill="#F2D4FF" points="140.405,20.354 146.162,184.5 151.5,184.5 			"/>
			
				<rect x="320.23" y="165.336" transform="matrix(0.998 0.0628 -0.0628 0.998 17.7462 -20.0161)" fill="#F2D4FF" width="14.231" height="214.026"/>
			
				<rect x="253.628" y="126.626" transform="matrix(0.998 0.0628 -0.0628 0.998 15.1859 -15.9122)" fill="#F2D4FF" width="14.23" height="214.026"/>
			<rect x="152.5" y="291.5" fill="#F2D4FF" width="175" height="88"/>
			<path fill="#F2D4FF" d="M164.34,18.288"/>
			<polyline fill="#F2D4FF" points="164.385,20.354 158.418,184.5 153.5,184.5 			"/>
			
				<rect x="257.022" y="279.124" transform="matrix(-0.9939 -0.11 0.11 -0.9939 546.5382 610.5911)" fill="#F2D4FF" width="66.181" height="22.191"/>
			<rect x="139.5" y="275.5" fill="#F2D4FF" width="122" height="104"/>
			<g>
				<polygon fill="#B18CC4" points="305.003,3.076 312.677,2.564 324.246,176.299 305.003,177.579 				"/>
				<polygon fill="#B18CC4" points="312.232,177.068 304.561,177.579 292.99,3.847 312.232,2.564 				"/>
			</g>
			<g>
				<polygon fill="#B18CC4" points="234.633,9.171 242.307,8.659 253.875,182.394 234.633,183.674 				"/>
				<polygon fill="#B18CC4" points="241.863,183.164 234.189,183.674 222.621,9.941 241.863,8.659 				"/>
			</g>
			<g>
				<polygon fill="#B18CC4" points="177.184,15.044 184.856,14.533 196.426,188.267 177.184,189.548 				"/>
				<polygon fill="#B18CC4" points="184.413,189.037 176.739,189.548 165.171,15.814 184.413,14.533 				"/>
			</g>
		</g>
		<polyline fill="#B18CC4" points="-16.099,297.445 41.34,283.811 255.887,297.5 41.5,297.5 		"/>
		<polyline fill="#B18CC4" points="318.748,296.66 261.133,282.919 46.409,296.5 261.5,296.5 		"/>
		<rect x="41.5" y="283.5" fill="#B18CC4" width="220" height="10"/>
	</g>
</g>
</svg>
