<?xml version="1.0" encoding="utf-8"?>
<!-- Generator: Adobe Illustrator 15.1.0, SVG Export Plug-In . SVG Version: 6.00 Build 0)  -->
<!DOCTYPE svg PUBLIC "-//W3C//DTD SVG 1.1//EN" "http://www.w3.org/Graphics/SVG/1.1/DTD/svg11.dtd">
<svg version="1.1" id="Layer_1" xmlns="http://www.w3.org/2000/svg" xmlns:xlink="http://www.w3.org/1999/xlink" x="0px" y="0px"
	 width="512px" height="512px" viewBox="-158.5 -46.5 512 512" enable-background="new -158.5 -46.5 512 512" xml:space="preserve">
<path fill="#B18CC4" d="M353.5,415.5c0,27.614-22.386,50-50,50h-412c-27.614,0-50-22.386-50-50V3.5c0-27.614,22.386-50,50-50h412
	c27.614,0,50,22.386,50,50V415.5z"/>
<path fill="#F2D4FF" d="M347.5,409.5c0,27.614-22.386,50-50,50h-400c-27.614,0-50-22.386-50-50V9.5c0-27.614,22.386-50,50-50h400
	c27.614,0,50,22.386,50,50V409.5z"/>
<path fill="#B18CC4" d="M341.5,403.5c0,27.614-22.386,50-50,50h-388c-27.614,0-50-22.386-50-50v-388c0-27.614,22.386-50,50-50h388
	c27.614,0,50,22.386,50,50V403.5z"/>
<path fill="#F2D4FF" d="M259.5,384.5l-162,38.207c0,0-121.146-85.027-186-79.207c-17.693,1.588-48-44-48-44s130-2,174-62
	s96.07-102.178,144-124c0,0,17-55.309,27-42s-2,42,77.01,150c50.725,69.332,53.99,105,13.99,134"/>
<path fill="#B18CC4" d="M25.646,233.514c0,0,35.918,64.546,152.597,122.198c97.337,48.095-99.033-44.596-95.342-41.618
	c0,0-13.193-10.693-86.604-76.428"/>
<g>
	<g>
		<path fill="#B18CC4" d="M95.294,201.529c12.897-25.181,54.564-31.363,75.247-12.826c10.235,9.173,13.475,27.146,6.581,39.213
			c-6.238,10.919-19.342,16.516-30.21,21.593c-8.035,3.755-20.989,7.962-24.717,16.942c-4.643,11.188,17.447,21.418,24.121,25.053
			c2.504,1.364,11.459-2.38,7.763-4.393c-5.564-3.03-28.78-14.09-21.144-23.844c2.713-3.467,7.563-5.473,11.388-7.361
			c5.741-2.838,11.617-5.391,17.32-8.307c11.021-5.637,22.975-13.274,27.091-25.625c4.506-13.522-0.056-29.542-11.014-38.468
			c-13.264-10.805-32.873-11.906-49.003-8.826c-17.182,3.282-34.782,12.074-43.044,28.207c-0.983,1.92,3.383,1.825,4.078,1.726
			C91.807,204.324,94.29,203.489,95.294,201.529L95.294,201.529z"/>
	</g>
</g>
<path fill="#B18CC4" d="M181.5,113.5c0,0,6,38.667,44,81.334c38,42.666-39.721-31.332-44-55.334l-20-50"/>
</svg>
