<?xml version="1.0" encoding="utf-8"?>
<!-- Generator: Adobe Illustrator 15.1.0, SVG Export Plug-In . SVG Version: 6.00 Build 0)  -->
<!DOCTYPE svg PUBLIC "-//W3C//DTD SVG 1.1//EN" "http://www.w3.org/Graphics/SVG/1.1/DTD/svg11.dtd">
<svg version="1.1" id="Layer_1" xmlns="http://www.w3.org/2000/svg" xmlns:xlink="http://www.w3.org/1999/xlink" x="0px" y="0px"
	 width="512px" height="512px" viewBox="-53.627 -33.5 512 512" enable-background="new -53.627 -33.5 512 512"
	 xml:space="preserve">
<g>
	<path fill="#B18CC4" d="M458.373,428.5c0,27.614-22.387,50-50,50h-412c-27.614,0-50-22.386-50-50v-412c0-27.614,22.386-50,50-50
		h412c27.613,0,50,22.386,50,50V428.5z"/>
	<path fill="#F2D4FF" d="M452.373,422.5c0,27.614-22.387,50-50,50h-400c-27.614,0-50-22.386-50-50v-400c0-27.614,22.386-50,50-50
		h400c27.613,0,50,22.386,50,50V422.5z"/>
	<path fill="#B18CC4" d="M446.373,416.5c0,27.614-22.387,50-50,50h-388c-27.614,0-50-22.386-50-50v-388c0-27.614,22.386-50,50-50
		h388c27.613,0,50,22.386,50,50V416.5z"/>
	<g>
		<g>
			<path fill="#F2D4FF" d="M232.041,89.936C161.813,82.519,103.043,77.959,84.3,162.61
				c-12.597,57.798-22.129,135.059,38.533,164.708c50.938,23.729,134.408,20.187,182.992-5.234
				c47.153-26.45,32.498-82.299,18.66-128.929c-17.49-63.281-38.88-89.462-97.879-106.054"/>
			<g>
				<path fill="#F2D4FF" d="M232.406,89.347c-19.575-2.064-39.318-4.253-59.033-3.582c-16.179,0.551-32.844,3.006-47.26,10.807
					c-36.032,19.498-43.756,63.578-49.15,100.586c-5.596,38.396-6.411,84.427,22.355,114.393
					c14.911,15.533,36.024,22.79,56.578,27.273c23.59,5.146,48.11,6.029,72.128,4.15c23.102-1.807,46.276-6.586,67.708-15.521
					c18.854-7.863,33.817-20.747,40.047-40.68c6.274-20.092,2.75-42.398-1.808-62.442c-4.987-21.953-11.241-44.316-19.756-65.173
					c-7.164-17.556-17.223-33.849-31.813-46.175c-15.78-13.331-35.578-20.867-55.216-26.441c-0.67-0.19-2.281,0.799-1.164,1.116
					c19.52,5.541,38.798,13.052,54.594,26.106c14.313,11.831,24.034,27.843,31.196,44.774c8.761,20.711,14.742,43.128,19.919,64.98
					c4.954,20.922,8.299,43.662,1.754,64.61c-7.439,23.812-28.671,35.623-50.939,43.086c-24.149,8.095-49.964,11.354-75.362,11.474
					c-44.34,0.207-99.231-8.888-120.643-52.937c-9.09-18.702-11.068-40.239-10.545-60.751c0.541-21.201,4.129-42.257,8.51-62.963
					c4.419-20.89,11.676-41.926,27.117-57.313c12.744-12.699,29.979-18.603,47.5-20.78c24.021-2.984,48.63,0.055,72.551,2.578
					C232.472,90.608,233.71,89.484,232.406,89.347L232.406,89.347z"/>
			</g>
		</g>
		<g>
			<g>
				<path fill="#F2D4FF" d="M237.542,131.071c4.5-97.495-92.995-76.496-154.492-109.494c-13.5,22.499-44.998,32.998-62.997,47.997
					c71.997,19.499,140.993-40.498,193.49,46.498"/>
				<g>
					<path fill="#F2D4FF" d="M238.519,130.992c0.735-17.803-1.562-36.107-11.692-51.2c-8.229-12.259-21.103-20.214-34.509-25.75
						C160.586,40.939,125.389,39.177,93.7,25.77c-3.372-1.427-6.668-3.023-9.902-4.74c-0.569-0.302-1.328-0.104-1.668,0.447
						C67.775,44.666,39.65,52.582,19.417,69.151c-0.364,0.298-0.525,0.901,0.074,1.06c33.611,8.888,67.223,0.588,101.045-1.803
						c16.512-1.167,33.205-0.171,48.601,6.365c19.059,8.091,32.962,24.429,43.52,41.719c0.439,0.721,2.288,0.006,1.771-0.84
						c-11.666-19.104-27.05-35.905-48.436-43.85c-17.402-6.464-36.485-5.777-54.65-3.96c-20.63,2.063-41.12,5.7-61.928,5.157
						c-5.05-0.131-10.086-0.578-15.09-1.262c-2.545-0.348-5.073-0.816-7.59-1.328c-1.628-0.331-3.241-0.73-4.852-1.136
						c-0.411-0.104,2.162-1.913,2.642-2.27c9.037-6.734,19.153-11.948,28.748-17.821c11.796-7.221,23.308-15.567,30.697-27.505
						c-0.556,0.149-1.112,0.298-1.668,0.447c30.478,16.18,65.568,18.853,98.027,29.251c14.962,4.793,29.674,11.709,40.316,23.591
						c12.385,13.826,16.093,32.618,16.066,50.664c-0.003,1.841-0.072,3.682-0.148,5.521
						C236.525,132.138,238.484,131.838,238.519,130.992L238.519,130.992z"/>
				</g>
			</g>
		</g>
		<g>
			<path fill="#F2D4FF" d="M247.904,138.02c-93.175-2.849-171.261-3.525-202.089,85.412
				c-20.781,60.712-38.814,141.363,40.072,167.89c66.319,21.063,177.914,11.651,244.473-18.01
				c64.725-30.633,49.016-87.449,33.764-134.778c-18.979-64.319-45.709-89.955-123.276-103.075"/>
			<g>
				<path fill="#F2D4FF" d="M248.269,137.431c-41.699-1.271-85.604-3.711-126.014,8.676c-16.783,5.144-32.423,13.533-45.339,25.484
					c-14.83,13.721-24.8,31.739-31.591,50.581c-12.526,34.755-23.972,75.223-15.636,112.205
					c3.861,17.132,13.404,32.65,27.554,43.174c17.24,12.82,38.31,18.127,59.182,21.554c47.613,7.814,97.551,4.747,144.747-4.364
					c22.561-4.355,44.908-10.521,66.101-19.467c19.116-8.069,36.506-21.377,45.206-40.635c7.533-16.676,7.07-35.646,4.08-53.318
					c-3.303-19.529-9.633-38.894-16.131-57.566c-5.754-16.534-13.396-32.623-24.791-46.046
					c-10.862-12.8-25.098-21.957-40.465-28.443c-17.115-7.225-35.496-11.242-53.743-14.361c-0.668-0.114-2.287,0.925-1.164,1.116
					c38.049,6.504,77.079,17.862,100.186,51.061c11.141,16.009,17.145,34.435,23.059,52.809
					c5.951,18.497,11.582,37.354,12.924,56.836c1.388,20.096-3.475,39.867-17.026,55.16c-16.074,18.141-40.519,26.491-63.089,33.205
					c-48.458,14.416-100.708,19.551-151.088,16.05c-41.142-2.857-91.413-11.693-109.425-54.155
					c-15.009-35.381-3.757-77.934,7.361-112.752c6.479-20.292,14.711-39.718,29.008-55.812
					c12.655-14.244,29.23-24.105,47.156-30.211c40.621-13.836,86.01-10.883,128.209-9.598
					C248.323,138.632,249.579,137.471,248.269,137.431L248.269,137.431z"/>
			</g>
		</g>
	</g>
	<g>
		<path fill="#B18CC4" d="M377.648,195.751c-35.488-23.582-74.104-36.824-110.314-57.436c37.465,5.583,95.844,28.51,135.924,48.934
			c-17.149,5.157-41.049,1.69-65.317-6.85"/>
		<g>
			<path fill="#B18CC4" d="M378.557,195.417c-34.758-22.92-74.188-37-110.313-57.436c-0.566,0.239-1.133,0.479-1.699,0.717
				c22.67,3.468,44.742,10.742,66.213,18.619c23.746,8.71,47.039,18.813,69.592,30.266c0.275-0.217,0.552-0.434,0.824-0.65
				c-21.037,5.996-44.381,0.038-64.442-6.917c-0.445-0.155-2.183,0.559-1.582,0.767c20.682,7.169,44.518,12.961,66.194,6.783
				c0.066-0.019,1.203-0.458,0.824-0.65c-22.154-11.249-45.016-21.119-68.293-29.797c-21.918-8.172-44.563-15.639-67.748-19.186
				c-0.277-0.042-2.123,0.479-1.701,0.717c36.125,20.436,75.556,34.515,110.314,57.436
				C377.207,196.393,378.854,195.612,378.557,195.417L378.557,195.417z"/>
		</g>
	</g>
</g>
</svg>
