<?xml version="1.0" encoding="utf-8"?>
<!-- Generator: Adobe Illustrator 15.1.0, SVG Export Plug-In . SVG Version: 6.00 Build 0)  -->
<!DOCTYPE svg PUBLIC "-//W3C//DTD SVG 1.1//EN" "http://www.w3.org/Graphics/SVG/1.1/DTD/svg11.dtd">
<svg version="1.1" id="Layer_1" xmlns="http://www.w3.org/2000/svg" xmlns:xlink="http://www.w3.org/1999/xlink" x="0px" y="0px"
	 width="512px" height="512px" viewBox="-3.695 -11.5 512 512" enable-background="new -3.695 -11.5 512 512" xml:space="preserve">
<g>
	<g>
		<path fill="#B18CC4" d="M508.305,450.5c0,27.614-22.387,50-50,50h-412c-27.614,0-50-22.386-50-50v-412c0-27.614,22.386-50,50-50
			h412c27.613,0,50,22.386,50,50V450.5z"/>
		<path fill="#F2D4FF" d="M502.305,444.5c0,27.614-22.387,50-50,50h-400c-27.614,0-50-22.386-50-50v-400c0-27.614,22.386-50,50-50
			h400c27.613,0,50,22.386,50,50V444.5z"/>
		<path fill="#B18CC4" d="M496.305,438.5c0,27.614-22.387,50-50,50h-388c-27.614,0-50-22.386-50-50v-388c0-27.614,22.386-50,50-50
			h388c27.613,0,50,22.386,50,50V438.5z"/>
		<g>
			<g>
				<path fill="#F2D4FF" d="M260.32,130.334c0.248-5.313,0.752-10.356,1.684-15.082c1.744-8.87,13.273-35.42,12.016-40.889
					c-13.967,0.296-15.133,0.132-29.519,0v55.971H260.32z"/>
				<path fill="#F2D4FF" d="M360.121,374.322c-1.654-25.742-17.021-42.008-28.035-61.784
					c-19.424-34.879-25.104-45.698-43.885-79.427c-4.174-7.493-14.416-25.302-26.199-48.895c-1.297-2.599-2.014-5.86-2.359-9.55
					H244.5v239.637l41.799-0.059C329.066,414.245,362.898,417.57,360.121,374.322z"/>
				<path fill="#F2D4FF" d="M232.966,174.667c-0.346,3.689-1.063,6.951-2.36,9.55c-11.782,23.593-22.025,41.401-26.198,48.895
					c-18.784,33.729-24.461,44.548-43.886,79.427c-11.014,19.777-26.38,36.042-28.034,61.784
					c-2.778,43.248,31.054,39.923,73.822,39.923l41.798,0.059V174.667H232.966z"/>
				<path fill="#F2D4FF" d="M232.287,130.334h15.821V74.363c-14.387,0.132-15.552,0.296-29.519,0
					c-1.258,5.469,10.271,32.019,12.017,40.889C231.535,119.978,232.041,125.021,232.287,130.334z"/>
			</g>
			<rect x="231.304" y="122.5" fill="#F2D4FF" width="30" height="130"/>
		</g>
	</g>
	<circle fill="#B18CC4" cx="287.365" cy="254.293" r="8.25"/>
	
		<ellipse transform="matrix(-0.4313 -0.9022 0.9022 -0.4313 171.5949 706.868)" fill="#B18CC4" cx="308.583" cy="299.352" rx="33.612" ry="8.25"/>
</g>
</svg>
