<?xml version="1.0" encoding="utf-8"?>
<!-- Generator: Adobe Illustrator 15.1.0, SVG Export Plug-In . SVG Version: 6.00 Build 0)  -->
<!DOCTYPE svg PUBLIC "-//W3C//DTD SVG 1.1//EN" "http://www.w3.org/Graphics/SVG/1.1/DTD/svg11.dtd">
<svg version="1.1" id="Layer_1" xmlns="http://www.w3.org/2000/svg" xmlns:xlink="http://www.w3.org/1999/xlink" x="0px" y="0px"
	 width="512px" height="512px" viewBox="0.5 0.5 512 512" enable-background="new 0.5 0.5 512 512" xml:space="preserve">
<g>
	<path fill="#B18CC4" d="M512.5,462.5c0,27.614-22.386,50-50,50h-412c-27.614,0-50-22.386-50-50v-412c0-27.614,22.386-50,50-50h412
		c27.614,0,50,22.386,50,50V462.5z"/>
	<path fill="#F2D4FF" d="M505.5,457.5c0,27.614-22.386,50-50,50h-400c-27.614,0-50-22.386-50-50v-400c0-27.614,22.386-50,50-50h400
		c27.614,0,50,22.386,50,50V457.5z"/>
	<path fill="#B18CC4" d="M500.5,450.5c0,27.614-22.386,50-50,50h-388c-27.614,0-50-22.386-50-50v-388c0-27.614,22.386-50,50-50h388
		c27.614,0,50,22.386,50,50V450.5z"/>
	<path fill="#F2D4FF" d="M56.68,26.707l20.775,3.594l20.367,15.916l0.528,16.109l77.907,87.939
		c17.923-36.756,35.759-62.775,53.509-78.053c-9.712,16.152-17.709,43.267-23.982,81.357l32.771,3.609l-27.133,23.703
		c30.6,28.44,60.083,54.814,88.434,79.15c48.05,41.089,92.89,76.197,134.503,105.271c-0.277,38.18,8.923,79.147,27.503,122.884
		l-1.48,1.313c-41.158-23.754-80.737-37.781-118.688-42.115c-23.841-44.821-53.248-93.567-88.256-146.229
		c-20.717-31.086-43.344-63.534-67.931-97.321l-26.763,24.045l0.338-32.922c-38.563,1.588-66.453,6.239-83.632,13.954
		c17.329-15.789,45.304-30.339,83.943-43.702L81.485,77.277L65.54,74.789L52.198,52.662l-1.06-21.046l0.409-0.8l2.884-1.078
		l1.43-2.74L56.68,26.707z"/>
</g>
</svg>
