<?xml version="1.0" encoding="utf-8"?>
<!-- Generator: Adobe Illustrator 15.1.0, SVG Export Plug-In . SVG Version: 6.00 Build 0)  -->
<!DOCTYPE svg PUBLIC "-//W3C//DTD SVG 1.1//EN" "http://www.w3.org/Graphics/SVG/1.1/DTD/svg11.dtd">
<svg version="1.1" id="Layer_1" xmlns="http://www.w3.org/2000/svg" xmlns:xlink="http://www.w3.org/1999/xlink" x="0px" y="0px"
	 width="512px" height="512px" viewBox="0 0 512 512" enable-background="new 0 0 512 512" xml:space="preserve">
<g>
	<path fill="#F2D4FF" d="M512,462c0,27.614-22.386,50-50,50H50c-27.614,0-50-22.386-50-50V50C0,22.386,22.386,0,50,0h412
		c27.614,0,50,22.386,50,50V462z"/>
	<path fill="#B18CC4" d="M506,456c0,27.614-22.386,50-50,50H56c-27.614,0-50-22.386-50-50V56C6,28.386,28.386,6,56,6h400
		c27.614,0,50,22.386,50,50V456z"/>
	<path fill="#F2D4FF" d="M500,450c0,27.614-22.386,50-50,50H62c-27.614,0-50-22.386-50-50V62c0-27.614,22.386-50,50-50h388
		c27.614,0,50,22.386,50,50V450z"/>
</g>
<g>
	<path fill="#B18CC4" d="M335.16,288.973c-8.135-25.229-16.688-51.82-23.832-78.927c-8.88-17.75-18.273-35.191-27.967-52.618
		c-6.442-11.582-13.363-24.439-14.718-37.825c-0.875-8.646-0.17-17.329-0.382-25.931c-31.204,28.292-75.551,27.528-108.432,16.57
		c5.515,32.774,16.295,52.058,28.143,79.941c47.972,100.553-14.174,211.691-51.244,292.839
		c17.445-1.765,33.798-10.584,51.244-15.877c17.444-3.528,32.708,3.528,50.153,0c16.354-3.528,31.618-19.405,47.972-12.349
		c38.16,12.349,70.868,59.979,110.119,8.82C380.952,405.402,352.605,348.951,335.16,288.973z"/>
	<g>
		<path fill="#B18CC4" d="M341.922,287.161c-5.246-16.271-10.466-32.548-15.366-48.926c-2.605-8.707-5.092-17.449-7.46-26.223
			c-2.249-8.329-7.214-16.086-11.209-23.716c-7.861-15.012-16.492-29.635-24.175-44.735c-3.851-7.568-6.802-15.622-8.099-24.028
			c-1.336-8.659-0.354-17.673-0.508-26.399c-0.095-5.462-8.187-5.258-11.31-2.479c-27.529,24.507-66.284,26.156-100.047,15.086
			c-3.94-1.292-11.592,1.03-10.68,6.311c4.609,26.703,15.409,50.634,26.142,75.285c5.682,13.051,11.028,25.882,14.401,39.761
			c3.244,13.348,4.758,27.072,4.966,40.792c0.83,54.823-19.537,107.713-41.648,156.946c-8.649,19.26-17.871,38.254-26.655,57.451
			c-1.746,3.816,2.602,5.975,5.833,5.604c14.98-1.718,28.776-7.439,42.778-12.694c6.934-2.603,13.288-4.395,20.758-4.157
			c7.388,0.235,14.709,1.514,22.092,1.896c14.33,0.741,25.99-3.573,38.604-9.789c4.916-2.422,9.9-4.848,15.438-5.246
			c5.086-0.365,11.214,3.035,15.739,5.094c18.991,8.636,35.357,23.643,56.279,27.759c10.321,2.03,20.719,0.552,30.143-4.1
			c5.302-2.616,10.083-6.312,14.337-10.385c2.539-2.431,4.899-4.99,7.165-7.677c3.276-3.886,3.922-5.391,2.606-10.28
			C386.308,399.826,358.934,345.256,341.922,287.161c-1.8-6.146-15.31-2.477-13.523,3.623
			c17.352,59.255,45.253,114.901,61.057,174.645c0.373-1.249,0.745-2.499,1.118-3.749c-6.802,8.705-14.822,17.234-25.959,19.813
			c-7.996,1.852-16.633-1.406-23.811-4.615c-18.45-8.245-34.089-21.39-53.581-27.571c-11.204-3.554-22.843,1.169-32.83,6.029
			c-5.263,2.562-10.423,5.353-16.088,6.927c-6.525,1.813-13.731,0.982-20.358,0.31c-6.266-0.636-12.461-1.258-18.767-1.314
			c-7.415-0.067-14.151,1.766-21.069,4.229c-13.368,4.759-26.523,11.034-40.761,12.666c1.944,1.868,3.888,3.736,5.833,5.604
			c21.886-47.835,45.813-94.898,59.417-145.975c6.997-26.271,10.818-53.489,9.326-80.697c-0.743-13.55-2.876-26.945-6.451-40.036
			c-3.727-13.649-9.676-26.423-15.371-39.325c-9.97-22.59-19.287-44.806-23.514-69.292c-3.56,2.104-7.12,4.208-10.68,6.311
			c38.941,12.768,85.092,10.187,116.816-18.054c-3.771-0.826-7.54-1.652-11.31-2.479c0.147,8.462-0.253,16.897,0.3,25.352
			c0.548,8.368,3.313,16.309,6.704,23.909c7.006,15.699,16.322,30.473,24.385,45.646c2.103,3.956,4.176,7.927,6.234,11.906
			c2.104,4.067,4.85,8.28,6.026,12.725c2.328,8.791,4.833,17.534,7.412,26.253c5.032,17.012,10.476,33.899,15.919,50.783
			C330.371,296.901,343.861,293.177,341.922,287.161z"/>
	</g>
</g>
<g>
	<g>
		<path fill="#F2D4FF" d="M274.03,484.144c16.285-53.082,27.073-108.522,27.384-164.192c0.103-18.56-0.941-37.255-4.544-55.494
			c-2.23-11.291-5.452-23.372-12.438-32.75c-0.649-0.872-1.368-1.69-2.122-2.473c-3.292-3.413-16.13,1.589-12.559,5.292
			c7.355,7.627,10.335,19.185,12.659,29.192c4.074,17.534,5.261,35.741,5.466,53.692c0.627,54.977-10.014,110.214-25.634,162.718
			c-0.567,1.906-1.151,3.809-1.734,5.71C259.046,490.609,272.63,488.708,274.03,484.144L274.03,484.144z"/>
	</g>
</g>
<g>
	<g>
		<path fill="#B18CC4" d="M191.678,449.841c16.056-23.218,24.405-51.288,30.797-78.487c6.352-27.022,10.274-54.591,13.287-82.165
			c0.213-1.956-13.064-0.579-13.523,3.623c-3.021,27.658-7.095,55.234-13.465,82.334c-6.274,26.692-14.706,54.245-30.451,77.014
			c-1.46,2.111,5.02,1.531,5.452,1.456C186.456,453.149,190.033,452.219,191.678,449.841L191.678,449.841z"/>
	</g>
</g>
<g>
	<g>
		<path fill="#B18CC4" d="M225.842,438.454c14.07-51.694,18.941-105.556,19-159c0.008-6.985-13.677-4.833-13.684,1.092
			c-0.059,53.444-4.93,107.307-19,159C210.435,445.88,224.268,444.236,225.842,438.454L225.842,438.454z"/>
	</g>
</g>
<g>
	<g>
		<path fill="#B18CC4" d="M286.718,341.991c5.694-65.588-17.089-127.529-33.956-189.803c-1.073-3.962-14.593-0.326-13.523,3.623
			c16.68,61.583,39.677,123.32,34.044,188.197C272.882,348.626,286.385,345.829,286.718,341.991L286.718,341.991z"/>
	</g>
</g>
<g>
	<g>
		<path fill="#B18CC4" d="M314.762,330.188c-2.304-47.521-16.488-98.243-46.5-135.901c-3.081-3.865-16.088,0.951-12.523,5.425
			c29.564,37.096,43.232,87.317,45.5,134.099C301.467,338.526,315.027,335.672,314.762,330.188L314.762,330.188z"/>
	</g>
</g>
<g>
	<g>
		<path fill="#F2D4FF" d="M212.158,406.277c-9.938,30.923-26.18,59.751-44.882,86.223h12.791
			c18.802-26.688,34.848-55.673,45.21-86.688c3.674-10.999,6.575-22.392,7.674-33.958c0.641-6.73,1.01-14.645-1.99-20.917
			c-2.242-4.683-15.441-0.386-13.523,3.623c2.773,5.795,2.525,12.757,1.993,18.989C218.479,384.691,215.568,395.666,212.158,406.277
			z"/>
	</g>
</g>
<g>
	<g>
		<path fill="#B18CC4" d="M191.873,450.026c16.056-23.218,24.405-51.288,30.797-78.487c6.352-27.021,10.274-54.59,13.287-82.164
			c0.213-1.957-13.063-0.58-13.523,3.623c-3.021,27.658-7.095,55.233-13.465,82.334c-6.274,26.691-14.706,54.244-30.451,77.015
			c-1.46,2.11,5.02,1.531,5.452,1.456C186.65,453.335,190.228,452.404,191.873,450.026L191.873,450.026z"/>
	</g>
</g>
<g>
	<g>
		<path fill="#B18CC4" d="M226.036,438.64c14.07-51.694,18.941-105.556,19-159c0.008-6.985-13.677-4.833-13.684,1.092
			c-0.059,53.444-4.93,107.308-19,159C210.629,446.065,224.462,444.422,226.036,438.64L226.036,438.64z"/>
	</g>
</g>
</svg>
